<svg width="500" height="270" viewBox="0 0 500 270" fill="none" xmlns="http://www.w3.org/2000/svg">
<path d="M250 270C388.071 270 500 266.271 500 261.672C500 257.072 388.071 253.343 250 253.343C111.929 253.343 0 257.072 0 261.672C0 266.271 111.929 270 250 270Z" fill="#77AAE9"/>
<path d="M256.713 266.164C385.132 266.164 489.235 261.831 489.235 256.486C489.235 251.141 385.132 246.808 256.713 246.808C128.295 246.808 24.1914 251.141 24.1914 256.486C24.1914 261.831 128.295 266.164 256.713 266.164Z" fill="#4992CE"/>
<path d="M438.947 257.7C450.31 257.7 457.727 246.441 457.727 233.447C457.865 122.632 434.272 8.38549 289.594 1.15591C120.475 -7.28824 57.1709 28.0499 37.8385 189.838C33.538 225.793 22.6093 258.336 90.0164 257.7H438.947Z" fill="white"/>
<path d="M166.966 242.701C166.966 242.701 168.624 222.979 149.548 219.547C130.472 216.115 81.1936 183.746 62.0189 188.373C53.9506 190.32 61.4271 212.587 56.5546 224.502C52.4514 234.527 31.4224 253.69 46.6714 257.7H169.255L166.966 242.701Z" fill="#BCDEF9"/>
<path opacity="0.42" d="M89.7024 193.906C89.7024 193.906 75.4595 234.527 88.7555 248.388C102.051 262.25 128.722 267.687 128.722 267.687H169.261V200.789L89.7024 193.906Z" fill="#77AAE9"/>
<path d="M156.99 211.103C156.99 211.103 186.659 208.153 199.857 203.43C213.054 198.707 193.248 257.546 193.248 257.546H144.602L156.99 211.103Z" fill="#89503D"/>
<path d="M160.556 221.976C160.556 239.135 142.94 246.673 123.114 246.673C103.289 246.673 88.75 239.135 88.75 221.976C88.75 204.818 106.603 183.746 126.429 183.746C146.254 183.746 160.556 204.818 160.556 221.976Z" fill="#9E5C46"/>
<path d="M153.125 199.381C153.125 199.381 156.834 253.401 94.0234 236.917C94.0234 236.917 99.4484 258.568 128.447 252.167C157.446 245.766 166.165 232.483 165.948 223.037C165.731 213.59 153.125 199.381 153.125 199.381Z" fill="#8A4F3D"/>
<path d="M132.228 184.402C126.451 182.939 120.519 182.143 114.553 182.03C112.975 182.011 111.337 182.05 109.838 182.589C109.601 182.686 109.325 182.821 109.266 183.052C109.207 183.283 109.601 183.785 109.996 183.92C110.622 184.142 111.283 184.253 111.949 184.247L105.616 184.826C103.821 184.98 101.829 185.25 100.685 186.599C100.409 186.946 100.211 187.525 100.586 187.775C100.749 187.88 100.944 187.927 101.138 187.91L105.261 188.065C102.288 188.605 99.4769 189.791 97.0352 191.535C96.7788 191.728 96.5026 191.959 96.4237 192.267C96.2659 192.981 97.2128 193.405 97.9427 193.521C102.539 194.234 107.214 193.829 111.85 193.443C115.598 193.116 119.366 192.788 123.035 191.978C124.89 191.554 126.783 190.995 128.224 189.761C129.664 188.527 130.532 186.542 129.92 184.787" fill="#9E5C46"/>
<path d="M107.199 223.557C107.199 223.557 112.19 226.68 114.834 221.571C114.834 221.571 112.19 224.405 107.199 223.557Z" fill="#231F20"/>
<path d="M136.055 219.547C136.055 219.547 139.428 223.827 144.596 220.318C144.596 220.318 140.572 221.764 136.055 219.547Z" fill="#231F20"/>
<path d="M134.637 216.906C137.024 214.245 151.543 217.022 156.988 218.159C156.948 210.737 152.234 204.066 143.041 206.091C138.76 207.035 134.834 209.426 130.652 210.717C130.216 210.288 129.718 209.925 129.173 209.638C128.384 209.194 127.614 208.77 126.806 208.365C126.411 208.173 125.918 207.98 125.543 208.211C125.168 208.443 125.129 208.867 125.247 209.233C125.397 209.576 125.618 209.885 125.898 210.139C124.61 208.974 123.224 207.917 121.755 206.977C121.578 206.862 121.341 206.746 121.144 206.823C121.042 206.874 120.96 206.955 120.907 207.054C120.69 207.517 120.887 208.057 121.164 208.481C121.64 209.22 122.272 209.851 123.018 210.332C121.811 209.614 120.559 208.97 119.27 208.404C118.264 207.961 117.218 207.575 116.113 207.575C115.896 207.575 115.64 207.614 115.541 207.806C115.517 207.896 115.515 207.99 115.536 208.081C115.556 208.171 115.599 208.256 115.66 208.327C116.271 209.233 117.297 209.792 118.303 210.255L118.639 210.409C119.467 210.795 120.315 211.122 121.183 211.431C117.139 211.103 113.214 210.37 109.308 210.505C106.487 210.582 103.685 211.122 100.845 212.549C95.3015 215.325 92.7765 220.126 93.4669 225.485C98.0238 222.747 111.182 216.328 115.995 219.451C120.809 222.574 105.658 234.238 100.707 237.824C114.358 249.198 141.463 244.629 152.372 230.767C139.549 230.151 131.895 219.952 134.637 216.906Z" fill="#ECC18F"/>
<path d="M134.044 236.107C134.287 236.453 134.457 236.842 134.545 237.253C134.633 237.663 134.637 238.086 134.557 238.498C134.526 238.673 134.451 238.839 134.34 238.98C134.233 239.087 134.103 239.169 133.96 239.222C133.817 239.276 133.664 239.298 133.512 239.288C133.08 239.269 132.666 239.111 132.334 238.84C132.003 238.568 131.772 238.197 131.677 237.785C131.578 237.341 131.578 236.744 131.125 236.57C130.987 236.518 130.836 236.504 130.691 236.532C130.02 236.647 129.487 237.264 128.797 237.322C128.107 237.38 127.219 236.512 126.351 236.358C126.094 236.3 125.818 236.32 125.581 236.223C125.345 236.127 125.147 235.838 125.266 235.625C125.384 235.413 125.66 235.394 125.897 235.375C127.222 235.356 128.542 235.22 129.843 234.97C130.434 234.854 131.006 234.7 131.598 234.565C131.784 234.522 131.977 234.518 132.165 234.555C132.352 234.591 132.529 234.667 132.683 234.777C133.23 235.119 133.695 235.573 134.044 236.107Z" fill="white"/>
<path d="M129.886 234.642C129.275 234.739 128.663 234.777 128.071 234.854L127.164 234.912L126.71 234.951C126.296 233.832 126.197 232.136 126.197 230.709C128.644 230.459 130.498 228.955 130.38 227.278C130.261 225.6 128.071 224.328 125.527 224.521C122.982 224.714 121.009 226.256 121.128 227.972C121.246 229.688 122.942 230.613 125.073 230.748C125.073 232.117 125.172 233.736 125.546 234.989C124.58 235.009 123.593 235.028 122.607 234.989C121.621 234.951 120.161 234.893 118.898 234.796C120.05 235.314 121.273 235.665 122.528 235.838C123.772 236.043 125.036 236.114 126.296 236.05C126.927 236.03 127.559 235.953 128.19 235.876C128.505 235.818 128.821 235.78 129.137 235.703L129.59 235.606L130.044 235.49C131.27 235.176 132.445 234.696 133.536 234.064C132.293 234.257 131.09 234.527 129.886 234.642Z" fill="#352F31"/>
<path d="M109.01 214.4C108.371 214.46 107.738 214.57 107.116 214.727C106.485 214.901 105.795 215.267 105.479 215.846C105.163 216.424 105.38 217.041 106.17 217.06C109.267 217.099 112.344 216.655 115.441 216.752C115.744 216.787 116.05 216.774 116.349 216.713C118.223 216.231 115.836 215.036 115.126 214.882C113.192 214.457 111.062 214.188 109.01 214.4Z" fill="#9E5C46"/>
<path d="M136.573 211.161C135.925 211.217 135.285 211.333 134.659 211.508C134.028 211.662 133.338 212.048 133.022 212.626C132.706 213.204 132.923 213.802 133.713 213.821C136.81 213.879 139.887 213.436 142.984 213.532C143.288 213.551 143.593 213.532 143.892 213.474C145.766 213.011 143.379 211.816 142.669 211.643C140.755 211.219 138.605 210.968 136.573 211.161Z" fill="#9E5C46"/>
<path d="M119.727 183.746L116.709 183.071C115.703 182.879 114.697 182.686 113.691 182.589L112.941 182.551C112.709 182.54 112.477 182.559 112.25 182.609C112.175 182.618 112.106 182.652 112.053 182.705V182.782C112.118 182.954 112.235 183.102 112.389 183.206C112.792 183.438 113.244 183.576 113.71 183.611C114.194 183.679 114.683 183.698 115.17 183.669C115.266 183.664 115.361 183.695 115.435 183.756C115.508 183.817 115.555 183.903 115.565 183.997C115.565 184.088 115.531 184.175 115.469 184.243C115.407 184.311 115.322 184.354 115.229 184.363C113.868 184.498 112.527 184.633 111.185 184.807C109.844 184.98 108.502 185.192 107.2 185.462C106.555 185.583 105.922 185.757 105.307 185.983L104.892 186.156C104.79 186.213 104.697 186.285 104.616 186.368C104.596 186.368 104.577 186.484 104.577 186.464C104.577 186.445 104.577 186.445 104.577 186.445H104.616L104.675 186.484C104.929 186.602 105.204 186.674 105.484 186.696L106.47 186.734C107.13 186.734 107.789 186.696 108.443 186.619H108.463C108.574 186.612 108.684 186.646 108.771 186.714C108.858 186.781 108.917 186.878 108.936 186.985C108.949 187.084 108.924 187.184 108.865 187.266C108.807 187.348 108.72 187.405 108.621 187.428C107.2 187.853 105.78 188.277 104.379 188.759C102.982 189.209 101.612 189.736 100.276 190.34C99.9542 190.49 99.6442 190.664 99.349 190.86C99.218 190.948 99.0988 191.052 98.994 191.169L98.9348 191.284C98.9348 191.303 98.9151 191.303 98.9545 191.342L99.1123 191.458L99.349 191.554L99.6055 191.651L99.862 191.728L100.118 191.805L100.375 191.863L100.651 191.901L100.927 191.94C102.395 192.09 103.879 191.979 105.307 191.612C104.603 191.862 103.876 192.043 103.137 192.152C102.395 192.284 101.64 192.329 100.888 192.287H100.592L100.316 192.248L100.039 192.21L99.7436 192.152L99.4674 192.075L99.1912 191.998L98.915 191.901L98.5994 191.708C98.49 191.592 98.4269 191.442 98.4219 191.284C98.4342 191.143 98.4891 191.009 98.5797 190.899C98.7052 190.728 98.8584 190.578 99.0334 190.455C99.3434 190.232 99.6661 190.026 100 189.838C100.671 189.491 101.361 189.183 102.052 188.894C102.742 188.604 103.433 188.335 104.123 188.084C105.543 187.563 106.944 187.101 108.384 186.657L108.562 187.467C107.868 187.55 107.17 187.595 106.47 187.602C106.108 187.608 105.746 187.595 105.386 187.563C104.99 187.533 104.602 187.435 104.241 187.274L104.084 187.178L103.926 187.043C103.875 186.982 103.829 186.917 103.788 186.85C103.744 186.78 103.717 186.701 103.709 186.619C103.683 186.538 103.676 186.452 103.689 186.368C103.691 186.296 103.704 186.224 103.728 186.156C103.77 186.017 103.837 185.886 103.926 185.77C104.078 185.612 104.259 185.481 104.458 185.385L104.971 185.154C105.636 184.925 106.314 184.738 107.003 184.594C108.364 184.325 109.725 184.132 111.087 183.997C112.448 183.862 113.809 183.727 115.17 183.65L115.21 184.344C114.675 184.36 114.14 184.328 113.612 184.247C113.048 184.174 112.508 183.976 112.033 183.669C111.763 183.487 111.572 183.211 111.501 182.898C111.475 182.81 111.462 182.719 111.461 182.628C111.481 182.506 111.536 182.393 111.619 182.3C111.746 182.17 111.912 182.082 112.093 182.05C112.372 181.999 112.658 181.986 112.941 182.011C113.206 182.018 113.469 182.043 113.73 182.088C114.749 182.254 115.757 182.479 116.748 182.763C117.774 183.11 118.741 183.418 119.727 183.746Z" fill="#ECC18F"/>
<path d="M174.484 257.546C174.484 257.546 179.613 208.481 184.013 203.16C188.412 197.839 257.555 186.291 284.245 183.746C394.874 173.22 483.665 254.847 463.82 257.276C457.468 258.047 421.861 257.546 421.861 257.546H174.484Z" fill="#BCDEF9"/>
<path d="M235.732 210.698C236.625 210.688 237.48 210.343 238.119 209.734C238.692 209.156 239.145 208.23 239.106 207.401C239.066 206.572 238.77 205.666 238.119 205.088C237.478 204.482 236.625 204.137 235.732 204.124C234.845 204.13 233.995 204.476 233.365 205.088C232.736 205.701 232.381 206.533 232.379 207.401C232.418 208.249 232.695 209.136 233.365 209.734C234.002 210.335 234.847 210.68 235.732 210.698Z" fill="white"/>
<path d="M253.549 233.274C254.442 233.264 255.297 232.919 255.936 232.31C256.508 231.731 256.942 230.806 256.903 229.977C256.905 229.548 256.821 229.123 256.655 228.726C256.489 228.329 256.245 227.968 255.936 227.663C255.295 227.057 254.441 226.713 253.549 226.699C252.656 226.709 251.801 227.054 251.162 227.663C250.547 228.285 250.194 229.112 250.176 229.977C250.215 230.844 250.511 231.712 251.162 232.31C251.804 232.916 252.657 233.26 253.549 233.274Z" fill="white"/>
<path d="M276.647 197.048C277.539 197.039 278.394 196.694 279.034 196.084C279.606 195.506 280.059 194.581 280.02 193.752C279.98 192.923 279.685 192.036 279.034 191.438C278.722 191.132 278.351 190.889 277.944 190.724C277.536 190.558 277.098 190.473 276.656 190.473C276.215 190.473 275.777 190.558 275.369 190.724C274.961 190.889 274.591 191.132 274.279 191.438C273.65 192.051 273.295 192.883 273.293 193.752C273.332 194.619 273.609 195.487 274.279 196.084C274.911 196.693 275.76 197.038 276.647 197.048Z" fill="white"/>
<path d="M262.704 213.05C263.59 213.035 264.437 212.691 265.071 212.086C265.702 211.466 266.056 210.627 266.057 209.753C266.018 208.905 265.742 208.018 265.071 207.44C264.439 206.831 263.591 206.486 262.704 206.476C261.811 206.485 260.956 206.83 260.317 207.44C259.745 207.999 259.291 208.943 259.331 209.753C259.37 210.563 259.666 211.488 260.317 212.086C260.959 212.69 261.812 213.034 262.704 213.05Z" fill="white"/>
<path d="M251.614 191.882C252.505 191.863 253.356 191.519 254.001 190.918C254.593 190.34 255.027 189.395 254.987 188.585C254.948 187.775 254.652 186.85 254.001 186.252C253.364 185.648 252.511 185.31 251.624 185.31C250.736 185.31 249.884 185.648 249.247 186.252C248.655 186.831 248.221 187.775 248.26 188.585C248.3 189.395 248.576 190.32 249.247 190.918C249.883 191.519 250.729 191.864 251.614 191.882Z" fill="white"/>
<path d="M200.602 212.105C201.488 212.091 202.335 211.746 202.97 211.141C203.6 210.521 203.955 209.683 203.956 208.808C203.916 207.96 203.64 207.073 202.97 206.495C202.337 205.887 201.489 205.541 200.602 205.531C199.709 205.54 198.855 205.886 198.215 206.495C197.643 207.054 197.19 207.999 197.229 208.808C197.268 209.618 197.564 210.544 198.215 211.141C198.857 211.747 199.71 212.092 200.602 212.105Z" fill="white"/>
<path d="M217.45 239.867C218.337 239.856 219.185 239.511 219.817 238.903C220.448 238.283 220.802 237.444 220.804 236.57C220.764 235.722 220.488 234.835 219.817 234.257C219.185 233.649 218.337 233.303 217.45 233.293C216.557 233.302 215.702 233.647 215.063 234.257C214.491 234.816 214.037 235.76 214.077 236.57C214.116 237.38 214.412 238.305 215.063 238.903C215.71 239.501 216.56 239.844 217.45 239.867Z" fill="white"/>
<path d="M216.006 219.161C216.892 219.147 217.739 218.802 218.373 218.197C219.004 217.577 219.358 216.739 219.36 215.865C219.32 215.016 219.044 214.149 218.373 213.551C217.741 212.943 216.893 212.598 216.006 212.587C215.113 212.597 214.258 212.942 213.619 213.551C212.99 214.164 212.635 214.996 212.633 215.865C212.672 216.713 212.968 217.6 213.619 218.197C214.256 218.81 215.112 219.156 216.006 219.161Z" fill="white"/>
<path d="M188.567 233.274C189.453 233.259 190.3 232.914 190.934 232.31C191.565 231.69 191.919 230.851 191.921 229.977C191.881 229.129 191.605 228.261 190.934 227.663C190.302 227.055 189.454 226.71 188.567 226.699C187.674 226.709 186.819 227.054 186.18 227.663C185.608 228.222 185.154 229.167 185.194 229.977C185.233 230.787 185.529 231.712 186.18 232.31C186.817 232.922 187.673 233.268 188.567 233.274Z" fill="white"/>
<path d="M193.384 251.627C194.27 251.613 195.116 251.268 195.751 250.663C196.381 250.043 196.736 249.204 196.737 248.33C196.698 247.482 196.421 246.595 195.751 246.017C195.119 245.409 194.27 245.063 193.384 245.053C192.491 245.062 191.636 245.407 190.997 246.017C190.424 246.576 189.971 247.52 190.01 248.33C190.05 249.14 190.346 250.065 190.997 250.663C191.639 251.267 192.492 251.612 193.384 251.627Z" fill="white"/>
<path d="M241.079 250.721C241.965 250.706 242.812 250.361 243.446 249.757C244.076 249.144 244.43 248.312 244.432 247.443C244.393 246.595 244.117 245.708 243.446 245.11C242.81 244.509 241.964 244.165 241.079 244.146C240.186 244.156 239.331 244.501 238.692 245.11C238.12 245.689 237.666 246.614 237.706 247.443C237.745 248.272 238.041 249.178 238.692 249.757C239.333 250.363 240.187 250.707 241.079 250.721Z" fill="white"/>
<path d="M235.162 227.625C236.055 227.615 236.91 227.27 237.549 226.661C238.121 226.102 238.575 225.157 238.535 224.347C238.496 223.538 238.2 222.612 237.549 222.014C236.908 221.408 236.054 221.064 235.162 221.051C234.276 221.065 233.429 221.41 232.795 222.014C232.164 222.635 231.81 223.473 231.809 224.347C231.848 225.195 232.124 226.063 232.795 226.661C233.427 227.269 234.275 227.614 235.162 227.625Z" fill="white"/>
<path d="M290.317 234.045C291.203 234.03 292.05 233.685 292.684 233.081C293.315 232.461 293.669 231.622 293.671 230.748C293.631 229.9 293.355 229.032 292.684 228.434C292.052 227.826 291.204 227.481 290.317 227.47C289.424 227.48 288.569 227.825 287.93 228.434C287.358 228.993 286.904 229.938 286.944 230.748C286.983 231.558 287.279 232.483 287.93 233.081C288.567 233.693 289.423 234.039 290.317 234.045Z" fill="white"/>
<path d="M302.787 205.165C303.675 205.159 304.525 204.813 305.155 204.201C305.784 203.588 306.139 202.756 306.141 201.888C306.102 201.039 305.825 200.152 305.155 199.555C304.518 198.953 303.673 198.609 302.787 198.591C301.894 198.6 301.04 198.945 300.4 199.555C299.785 200.185 299.433 201.017 299.414 201.888C299.454 202.736 299.749 203.623 300.4 204.201C301.042 204.807 301.895 205.152 302.787 205.165Z" fill="white"/>
<path d="M279.153 215.441C280.044 215.435 280.897 215.086 281.526 214.468C282.154 213.85 282.507 213.015 282.507 212.144C282.467 211.296 282.191 210.428 281.52 209.83C280.888 209.222 280.04 208.877 279.153 208.866C278.26 208.876 277.405 209.221 276.766 209.83C276.194 210.389 275.74 211.334 275.78 212.144C275.819 212.954 276.115 213.879 276.766 214.477C277.408 215.083 278.261 215.427 279.153 215.441Z" fill="white"/>
<path d="M275.208 251.357C276.096 251.345 276.948 251.008 277.595 250.412C278.167 249.834 278.62 248.889 278.581 248.08C278.541 247.27 278.246 246.345 277.595 245.747C276.948 245.149 276.098 244.806 275.208 244.783C274.323 244.805 273.479 245.149 272.84 245.747C272.249 246.325 271.815 247.27 271.854 248.08C271.894 248.889 272.17 249.815 272.84 250.412C273.479 251.008 274.325 251.346 275.208 251.357Z" fill="white"/>
<path d="M323.798 259.705C324.685 259.699 325.535 259.353 326.165 258.741C326.794 258.128 327.149 257.296 327.151 256.428C327.112 255.579 326.836 254.692 326.165 254.095C325.533 253.487 324.684 253.141 323.798 253.131C322.905 253.14 322.05 253.485 321.411 254.095C320.839 254.673 320.385 255.599 320.424 256.428C320.464 257.257 320.76 258.143 321.411 258.741C322.052 259.347 322.906 259.692 323.798 259.705Z" fill="white"/>
<path d="M334.963 225.061C335.849 225.046 336.696 224.701 337.33 224.097C337.96 223.484 338.315 222.652 338.317 221.783C338.277 220.916 338.001 220.048 337.33 219.451C336.698 218.842 335.85 218.497 334.963 218.487C334.07 218.496 333.215 218.841 332.576 219.451C331.946 220.071 331.591 220.909 331.59 221.783C331.629 222.632 331.925 223.499 332.576 224.097C333.213 224.709 334.069 225.055 334.963 225.061Z" fill="white"/>
<path d="M306.733 244.956C307.619 244.942 308.466 244.597 309.1 243.992C309.731 243.372 310.085 242.534 310.086 241.66C310.047 240.811 309.771 239.925 309.1 239.346C308.468 238.738 307.62 238.393 306.733 238.382C305.84 238.392 304.985 238.737 304.346 239.346C303.716 239.959 303.362 240.791 303.359 241.66C303.399 242.508 303.695 243.395 304.346 243.992C304.988 244.597 305.841 244.941 306.733 244.956Z" fill="white"/>
<path d="M311.981 223.769C312.864 223.758 313.71 223.42 314.348 222.824C314.94 222.246 315.374 221.301 315.335 220.492C315.295 219.682 315.019 218.756 314.348 218.159C313.712 217.557 312.866 217.213 311.981 217.195C311.09 217.214 310.239 217.558 309.594 218.159C309.022 218.737 308.568 219.682 308.608 220.492C308.647 221.301 308.943 222.227 309.594 222.824C310.243 223.417 311.093 223.753 311.981 223.769Z" fill="white"/>
<path d="M333.639 187.852C334.532 187.843 335.386 187.498 336.026 186.888C336.641 186.258 336.993 185.426 337.012 184.556C336.973 183.707 336.677 182.84 336.026 182.242C335.384 181.636 334.531 181.292 333.639 181.278C332.746 181.288 331.891 181.633 331.252 182.242C330.635 182.862 330.288 183.691 330.285 184.556C330.325 185.404 330.601 186.291 331.252 186.888C331.893 187.494 332.747 187.839 333.639 187.852Z" fill="white"/>
<path d="M303.436 191.053C304.329 191.043 305.183 190.698 305.823 190.089C306.395 189.53 306.848 188.585 306.809 187.775C306.769 186.966 306.474 186.04 305.823 185.443C305.176 184.845 304.326 184.501 303.436 184.479C302.55 184.493 301.703 184.838 301.068 185.443C300.438 186.063 300.083 186.901 300.082 187.775C300.121 188.624 300.398 189.511 301.068 190.089C301.7 190.697 302.549 191.043 303.436 191.053Z" fill="white"/>
<path d="M380.904 228.261C381.793 228.249 382.645 227.912 383.291 227.316C383.863 226.738 384.317 225.793 384.278 224.983C384.238 224.174 383.942 223.248 383.291 222.651C382.645 222.053 381.794 221.709 380.904 221.687C380.013 221.692 379.16 222.041 378.532 222.659C377.903 223.277 377.551 224.112 377.551 224.983C377.59 225.832 377.866 226.719 378.537 227.316C379.176 227.912 380.021 228.25 380.904 228.261Z" fill="white"/>
<path d="M366.463 203.892C367.356 203.883 368.211 203.538 368.85 202.929C369.422 202.35 369.856 201.425 369.817 200.596C369.819 200.167 369.735 199.742 369.569 199.345C369.404 198.948 369.159 198.587 368.85 198.282C368.209 197.676 367.355 197.332 366.463 197.318C365.57 197.328 364.715 197.673 364.076 198.282C363.461 198.904 363.108 199.731 363.09 200.596C363.129 201.444 363.425 202.331 364.076 202.929C364.718 203.535 365.571 203.879 366.463 203.892Z" fill="white"/>
<path d="M333.639 205.82C334.532 205.811 335.386 205.466 336.026 204.856C336.641 204.226 336.993 203.394 337.012 202.524C336.973 201.675 336.677 200.789 336.026 200.21C335.384 199.604 334.531 199.26 333.639 199.246C332.746 199.256 331.891 199.601 331.252 200.21C330.635 200.83 330.288 201.659 330.285 202.524C330.325 203.372 330.601 204.259 331.252 204.856C331.899 205.454 332.749 205.798 333.639 205.82Z" fill="white"/>
<path d="M356.622 218.641C357.509 218.63 358.357 218.285 358.989 217.677C359.618 217.064 359.973 216.232 359.975 215.363C359.936 214.515 359.66 213.628 358.989 213.031C358.353 212.429 357.507 212.085 356.622 212.067C355.729 212.076 354.874 212.421 354.235 213.031C353.663 213.609 353.209 214.534 353.248 215.363C353.288 216.192 353.584 217.098 354.235 217.677C354.876 218.283 355.73 218.627 356.622 218.641Z" fill="white"/>
<path d="M359.899 246.884C360.792 246.875 361.647 246.53 362.286 245.92C362.858 245.342 363.312 244.417 363.272 243.588C363.233 242.759 362.937 241.853 362.286 241.255C361.637 240.662 360.787 240.326 359.899 240.31C359.016 240.321 358.17 240.659 357.532 241.255C356.94 241.833 356.506 242.778 356.545 243.588C356.585 244.397 356.861 245.323 357.532 245.92C358.168 246.522 359.014 246.866 359.899 246.884Z" fill="white"/>
<path d="M338.233 245.593C339.126 245.583 339.98 245.238 340.62 244.629C341.192 244.05 341.626 243.125 341.586 242.296C341.589 241.867 341.505 241.442 341.339 241.045C341.173 240.648 340.929 240.287 340.62 239.982C339.978 239.377 339.125 239.032 338.233 239.019C337.34 239.028 336.485 239.373 335.846 239.982C335.23 240.605 334.878 241.431 334.859 242.296C334.899 243.164 335.195 244.031 335.846 244.629C336.487 245.235 337.341 245.579 338.233 245.593Z" fill="white"/>
<path d="M387.471 253.94C388.362 253.935 389.215 253.586 389.844 252.968C390.472 252.35 390.825 251.515 390.825 250.644C390.785 249.795 390.509 248.909 389.838 248.33C389.206 247.722 388.358 247.377 387.471 247.366C386.578 247.376 385.723 247.721 385.084 248.33C384.469 248.952 384.116 249.779 384.098 250.644C384.137 251.492 384.433 252.379 385.084 252.976C385.731 253.574 386.581 253.918 387.471 253.94Z" fill="white"/>
<path d="M401.912 235.973C402.805 235.963 403.66 235.618 404.299 235.009C404.914 234.379 405.266 233.546 405.285 232.676C405.246 231.828 404.95 230.941 404.299 230.362C403.658 229.756 402.804 229.412 401.912 229.398C401.019 229.408 400.164 229.753 399.525 230.362C398.908 230.982 398.562 231.811 398.559 232.676C398.598 233.524 398.874 234.411 399.525 235.009C400.172 235.607 401.022 235.95 401.912 235.973Z" fill="white"/>
<path d="M390.1 214.804C390.993 214.795 391.847 214.45 392.487 213.84C393.102 213.21 393.454 212.378 393.473 211.508C393.434 210.659 393.138 209.773 392.487 209.194C391.845 208.588 390.992 208.244 390.1 208.23C389.207 208.24 388.352 208.585 387.713 209.194C387.096 209.814 386.749 210.643 386.746 211.508C386.766 212.356 387.062 213.243 387.713 213.84C388.36 214.438 389.21 214.782 390.1 214.804Z" fill="white"/>
<path d="M436.065 240.464C436.951 240.45 437.798 240.105 438.432 239.501C439.063 238.88 439.417 238.042 439.418 237.168C439.379 236.32 439.103 235.433 438.432 234.854C437.8 234.246 436.952 233.901 436.065 233.89C435.172 233.9 434.317 234.245 433.678 234.854C433.048 235.467 432.694 236.299 432.691 237.168C432.731 238.016 433.027 238.903 433.678 239.501C434.32 240.105 435.173 240.449 436.065 240.464Z" fill="white"/>
<path d="M416.357 221.86C417.25 221.851 418.105 221.506 418.744 220.896C419.317 220.318 419.77 219.393 419.731 218.564C419.691 217.735 419.395 216.828 418.744 216.25C418.103 215.644 417.25 215.299 416.357 215.286C415.471 215.296 414.622 215.642 413.99 216.25C413.361 216.863 413.006 217.695 413.004 218.564C413.043 219.412 413.32 220.299 413.99 220.896C414.627 221.498 415.472 221.842 416.357 221.86Z" fill="white"/>
<path d="M415.7 254.577C416.591 254.571 417.444 254.222 418.072 253.604C418.701 252.986 419.054 252.151 419.054 251.28C419.014 250.432 418.738 249.564 418.067 248.966C417.435 248.358 416.587 248.013 415.7 248.002C414.807 248.012 413.952 248.357 413.313 248.966C412.741 249.525 412.287 250.47 412.327 251.28C412.366 252.09 412.662 253.015 413.313 253.613C413.954 254.219 414.808 254.563 415.7 254.577Z" fill="white"/>
<path d="M441.309 254.577C442.195 254.562 443.042 254.217 443.677 253.613C444.307 252.992 444.662 252.154 444.663 251.28C444.623 250.432 444.347 249.564 443.677 248.966C443.045 248.358 442.196 248.013 441.309 248.002C440.416 248.012 439.562 248.357 438.922 248.966C438.35 249.525 437.897 250.47 437.936 251.28C437.975 252.09 438.271 253.015 438.922 253.613C439.564 254.219 440.417 254.563 441.309 254.577Z" fill="white"/>
<path d="M216.123 255.849C217.016 255.84 217.871 255.494 218.51 254.885C219.082 254.326 219.536 253.381 219.496 252.572C219.457 251.762 219.161 250.836 218.51 250.239C217.863 249.641 217.013 249.298 216.123 249.275C215.232 249.28 214.379 249.63 213.751 250.247C213.122 250.865 212.77 251.701 212.77 252.572C212.809 253.42 213.085 254.307 213.756 254.885C214.388 255.493 215.236 255.839 216.123 255.849Z" fill="white"/>
<path d="M218.096 203.256C218.989 203.247 219.844 202.902 220.483 202.293C221.055 201.714 221.489 200.789 221.45 199.96C221.41 199.131 221.134 198.225 220.483 197.646C219.841 197.04 218.988 196.696 218.096 196.682C217.203 196.692 216.348 197.037 215.709 197.646C215.094 198.268 214.741 199.095 214.723 199.96C214.762 200.808 215.058 201.695 215.709 202.293C216.356 202.891 217.206 203.234 218.096 203.256Z" fill="white"/>
<path opacity="0.42" d="M198.095 198.167C198.095 198.167 213.936 241.602 259.663 244.243C305.39 246.884 471.965 250.47 471.965 250.47V261.671H162.902L177.717 200.461L198.095 198.167Z" fill="#77AAE9"/>
<path d="M135.386 254.365C135.018 253.311 134.334 252.391 133.422 251.724C132.511 251.056 131.414 250.673 130.277 250.624C124.773 250.316 112.66 250.162 105.066 253.902C94.9456 258.895 85.3583 267.281 89.8955 266.048C94.4327 264.814 107.334 255.81 113.134 256.678C118.934 257.546 133.906 258.143 135.268 256.427C135.682 255.888 135.642 255.136 135.386 254.365Z" fill="#ECC18F"/>
<path d="M135.227 255.656C135.227 255.656 111.416 255.618 109.108 257.565C106.8 259.512 93.7014 267.031 95.3782 267.648C97.055 268.265 110.371 262.385 113.073 261.652C115.776 260.919 136.608 263.85 137.239 261.671C137.87 259.493 135.227 255.656 135.227 255.656Z" fill="#ECC18F"/>
<path d="M113.133 256.678C113.133 256.678 124.772 255.251 128.717 255.733C128.717 255.733 120.787 253.285 113.133 256.678Z" fill="#E0A870"/>
<path d="M132.232 250.22L177.722 230.285L174.487 257.546C174.487 257.546 140.182 263.599 133.534 263.31C126.886 263.021 132.232 250.22 132.232 250.22Z" fill="#9E5C45"/>
<path d="M126.213 257.719C126.213 257.719 162.945 254.963 184.231 241.602V261.672L125.168 266.164L126.213 257.719Z" fill="#8A4F3D"/>
<path d="M153.124 200.788C153.124 200.788 132.234 195.333 119.727 185.153C107.22 174.974 150.481 156.601 164.448 158.491C178.414 160.38 185.102 201.02 169.261 226.41L160.562 188.624C160.562 188.624 161.627 197.704 153.124 200.788Z" fill="#BCDEF9"/>
<path opacity="0.42" d="M140.32 196.47C140.32 196.47 159.357 185.462 160.56 178.136C161.764 170.81 171.232 210.081 168.806 224.502L160.56 200.037L151.604 203.16L140.32 196.47Z" fill="#77AAE9"/>
<path opacity="0.54" d="M122.152 173.682C122.152 173.682 146.021 191.033 159.514 198.475L151.604 203.16C151.604 203.16 118.305 191.245 115.188 183.707C112.071 176.169 122.152 173.682 122.152 173.682Z" fill="white"/>
<path d="M168.942 234.527C171.774 234.527 174.071 232.283 174.071 229.514C174.071 226.746 171.774 224.502 168.942 224.502C166.109 224.502 163.812 226.746 163.812 229.514C163.812 232.283 166.109 234.527 168.942 234.527Z" fill="white"/>
</svg>
