<svg width="192" height="64" viewBox="0 0 192 64" fill="none" xmlns="http://www.w3.org/2000/svg">
<rect width="192" height="64" rx="8.25" fill="black"/>
<path d="M39.6288 32.4811C39.6638 29.7667 41.0868 27.2595 43.3993 25.8378C41.9338 23.7448 39.5672 22.4654 37.0135 22.3855C34.3267 22.1035 31.722 23.9932 30.3528 23.9932C28.9572 23.9932 26.8492 22.4135 24.5792 22.4602C21.5925 22.5567 18.8756 24.2136 17.4226 26.8248C14.3282 32.1823 16.6363 40.056 19.6005 44.3865C21.0835 46.5071 22.8168 48.8758 25.0847 48.7918C27.304 48.6998 28.1328 47.3766 30.8117 47.3766C33.4657 47.3766 34.2434 48.7918 36.5573 48.7384C38.9387 48.6997 40.4391 46.6084 41.8701 44.4678C42.9357 42.9568 43.7556 41.2868 44.2996 39.5198C41.4712 38.3235 39.6321 35.5521 39.6288 32.4811Z" fill="white"/>
<path d="M35.259 19.5374C36.5574 17.9787 37.1971 15.9752 37.0422 13.9524C35.0585 14.1607 33.226 15.1088 31.9101 16.6078C30.6106 18.0867 29.9523 20.0215 30.0801 21.986C32.0905 22.0067 33.9992 21.1042 35.259 19.5374Z" fill="white"/>
<path fill-rule="evenodd" clip-rule="evenodd" d="M60.1086 43.4234H67.682L69.4992 48.7937H72.7617L65.5883 28.9249H62.2555L55.082 48.7937H58.2898L60.1086 43.4234ZM66.8962 40.9453H60.893L63.854 32.2296H63.9368L66.8962 40.9453Z" fill="white"/>
<path fill-rule="evenodd" clip-rule="evenodd" d="M82.2094 48.9453C85.8454 48.9453 88.2547 46.0531 88.2547 41.5516C88.2547 37.0625 85.8312 34.1563 82.1547 34.1562C80.2629 34.0952 78.4907 35.0792 77.5422 36.7172H77.4876V34.3078H74.6094V53.5859H77.5828V46.4109H77.6516C78.5598 48.0593 80.33 49.0436 82.2094 48.9453ZM81.3704 36.6906C83.6828 36.6906 85.1985 38.6188 85.1985 41.5516C85.1985 44.511 83.6829 46.425 81.3704 46.425C79.0985 46.425 77.5704 44.4703 77.5704 41.5516C77.5704 38.6594 79.0985 36.6906 81.3704 36.6906Z" fill="white"/>
<path fill-rule="evenodd" clip-rule="evenodd" d="M98.1528 48.9453C101.789 48.9453 104.198 46.0531 104.198 41.5516C104.198 37.0625 101.775 34.1562 98.098 34.1562C96.2062 34.0952 94.434 35.0792 93.4855 36.7172H93.4308V34.3078H90.5527V53.5859H93.5262V46.4109H93.595C94.5031 48.0592 96.2734 49.0436 98.1528 48.9453ZM97.3137 36.6906C99.6262 36.6906 101.142 38.6188 101.142 41.5516H101.142C101.142 44.5109 99.6262 46.425 97.3137 46.425C95.0418 46.425 93.5137 44.4703 93.5137 41.5516C93.5137 38.6594 95.0418 36.6906 97.3137 36.6906Z" fill="white"/>
<path d="M114.735 43.2578C114.956 45.2281 116.87 46.5218 119.485 46.5218C121.991 46.5218 123.795 45.228 123.795 43.4515C123.795 41.9093 122.707 40.9859 120.132 40.353L117.557 39.7327C113.909 38.8515 112.215 37.1452 112.215 34.3764C112.215 30.9483 115.202 28.5936 119.445 28.5936C123.643 28.5936 126.521 30.9483 126.618 34.3764H123.616C123.437 32.3936 121.798 31.1968 119.402 31.1968C117.007 31.1968 115.368 32.4077 115.368 34.1702C115.368 35.5749 116.415 36.4015 118.976 37.0342L121.165 37.5717C125.241 38.5358 126.935 40.1733 126.935 43.0795C126.935 46.7967 123.974 49.1248 119.265 49.1248C114.859 49.1248 111.884 46.8514 111.691 43.2576L114.735 43.2578Z" fill="white"/>
<path d="M133.352 30.8797V34.3078H136.106V36.6625H133.352V44.6485C133.352 45.8891 133.903 46.4672 135.114 46.4672C135.441 46.4615 135.768 46.4385 136.092 46.3984V48.739C135.548 48.8408 134.994 48.8868 134.441 48.8765C131.508 48.8765 130.364 47.775 130.364 44.9656V36.6625H128.258V34.3078H130.364V30.8797H133.352Z" fill="white"/>
<path fill-rule="evenodd" clip-rule="evenodd" d="M144.573 34.1297C140.387 34.1297 137.703 36.9938 137.703 41.5516C137.703 46.1219 140.361 48.9734 144.573 48.9734C148.788 48.9734 151.445 46.1219 151.445 41.5516C151.445 36.9937 148.773 34.1297 144.573 34.1297ZM144.573 36.5797C146.983 36.5797 148.416 38.425 148.416 41.5516H148.416C148.416 44.6906 146.983 46.5219 144.573 46.5219C142.164 46.5219 140.733 44.6906 140.733 41.5516C140.733 38.4391 142.164 36.5797 144.573 36.5797Z" fill="white"/>
<path d="M153.897 34.3078H156.732V36.7734H156.801C157.197 35.1862 158.651 34.0938 160.286 34.1562C160.628 34.155 160.97 34.1922 161.304 34.2672V37.0484C160.872 36.9162 160.42 36.8555 159.968 36.8687C159.094 36.8333 158.248 37.1817 157.653 37.8224C157.057 38.4632 156.771 39.3323 156.87 40.2015V48.7937H153.896L153.897 34.3078Z" fill="white"/>
<path fill-rule="evenodd" clip-rule="evenodd" d="M168.775 48.9734C172.052 48.9734 174.612 47.1688 175.012 44.5391L172.189 44.5391C171.647 45.8832 170.287 46.7118 168.844 46.5766C167.762 46.6164 166.715 46.1895 165.969 45.4045C165.224 44.6194 164.851 43.5519 164.947 42.4734V42.2938H175.178V41.275C175.178 36.8828 172.658 34.1297 168.65 34.1297C164.575 34.1297 161.945 37.0766 161.945 41.6203C161.945 46.15 164.561 48.9734 168.775 48.9734ZM172.203 40.2156L164.961 40.2157C164.958 39.2376 165.347 38.2991 166.039 37.6087C166.732 36.9183 167.672 36.5332 168.65 36.5391C169.62 36.5182 170.555 36.9031 171.23 37.601C171.904 38.2989 172.257 39.2466 172.203 40.2156Z" fill="white"/>
<path fill-rule="evenodd" clip-rule="evenodd" d="M63.8916 15.2782C63.0214 14.3593 61.785 13.879 60.5227 13.9696H57.0742V23.5165H60.5227C63.3664 23.5165 65.0148 21.7633 65.0148 18.7133C65.174 17.4578 64.7618 16.1971 63.8916 15.2782ZM60.357 22.1664H58.557V15.3187H60.357C61.2543 15.2689 62.127 15.6227 62.7362 16.2834C63.3455 16.9441 63.6276 17.8424 63.5055 18.7328C63.6372 19.6269 63.3591 20.5327 62.7483 21.1988C62.1375 21.8649 61.2591 22.2203 60.357 22.1664Z" fill="white"/>
<path fill-rule="evenodd" clip-rule="evenodd" d="M68.2879 16.6857C67.1856 17.3698 66.5664 18.6196 66.69 19.9109C66.5641 21.2037 67.1827 22.4559 68.286 23.1414C69.3893 23.8269 70.786 23.8269 71.8892 23.1414C72.9925 22.4559 73.6112 21.2037 73.4853 19.9109C73.6088 18.6196 72.9896 17.3698 71.8873 16.6857C70.785 16.0017 69.3902 16.0017 68.2879 16.6857ZM70.09 17.4359C71.3212 17.4359 72.0228 18.3492 72.0228 19.9109H72.0228C72.0228 21.4789 71.3212 22.3914 70.09 22.3914C68.8541 22.3914 68.1588 21.4852 68.1588 19.911C68.1588 18.3492 68.854 17.4359 70.09 17.4359Z" fill="white"/>
<path d="M82.518 23.5164H81.043L79.5539 18.2101H79.4414L77.9586 23.5164H76.4977L74.5117 16.3117H75.9539L77.2445 21.8093H77.3508L78.832 16.3117H80.1961L81.6774 21.8093H81.7898L83.0742 16.3117H84.4961L82.518 23.5164Z" fill="white"/>
<path d="M86.166 16.3117H87.5348V17.4562H87.641C88.0105 16.6135 88.8739 16.0981 89.791 16.1726C90.5011 16.1192 91.197 16.3916 91.6821 16.9129C92.1672 17.4342 92.389 18.1478 92.2848 18.8523V23.5163H90.8629V19.2093C90.8629 18.0515 90.3598 17.4757 89.3082 17.4757C88.8266 17.4533 88.3591 17.6423 88.0285 17.9933C87.6978 18.3442 87.5369 18.822 87.5879 19.3015V23.5164H86.166L86.166 16.3117Z" fill="white"/>
<path d="M94.55 13.4992H95.9719V23.5164H94.55V13.4992Z" fill="white"/>
<path fill-rule="evenodd" clip-rule="evenodd" d="M99.546 16.6856C98.4436 17.3697 97.8243 18.6195 97.9477 19.9109C97.822 21.2038 98.4408 22.4559 99.5441 23.1414C100.647 23.8269 102.044 23.8269 103.147 23.1414C104.251 22.4559 104.87 21.2038 104.744 19.9109C104.867 18.6195 104.248 17.3697 103.146 16.6856C102.043 16.0016 100.648 16.0016 99.546 16.6856ZM101.348 17.436C102.579 17.436 103.281 18.3492 103.281 19.9109H103.281C103.281 21.4789 102.579 22.3914 101.348 22.3914C100.112 22.3914 99.4165 21.4852 99.4165 19.911C99.4165 18.3492 100.112 17.436 101.348 17.436Z" fill="white"/>
<path fill-rule="evenodd" clip-rule="evenodd" d="M108.922 19.3281C107.208 19.4344 106.242 20.182 106.242 21.4789C106.245 22.0938 106.507 22.679 106.965 23.0898C107.422 23.5007 108.032 23.6987 108.644 23.6351C109.516 23.6755 110.343 23.2433 110.808 22.5039H110.92V23.5164H112.289V18.5938C112.289 17.0719 111.27 16.1727 109.464 16.1727C107.83 16.1727 106.666 16.9664 106.52 18.2039H107.897C108.055 17.6945 108.605 17.4031 109.398 17.4031C110.37 17.4031 110.873 17.8328 110.873 18.5938V19.2156L108.922 19.3281ZM110.873 20.2609V20.8633C110.842 21.3225 110.626 21.7494 110.275 22.0463C109.923 22.3432 109.466 22.4846 109.008 22.4383C108.234 22.4383 107.672 22.0609 107.672 21.4125C107.672 20.7773 108.122 20.4398 109.114 20.3734L110.873 20.2609Z" fill="white"/>
<path fill-rule="evenodd" clip-rule="evenodd" d="M117.147 16.1922C115.327 16.1922 114.156 17.6344 114.156 19.911C114.156 22.193 115.314 23.6352 117.147 23.6351C118.076 23.6694 118.948 23.1852 119.409 22.3781H119.522V23.5164H120.884V13.4992H119.463V17.4562H119.356C118.927 16.6424 118.066 16.1498 117.147 16.1922ZM117.55 22.3586C116.345 22.3586 115.625 21.4391 115.625 19.911H115.625C115.625 18.3953 116.353 17.4695 117.55 17.4695C118.741 17.4695 119.489 18.4156 119.489 19.9172C119.489 21.4258 118.748 22.3586 117.55 22.3586Z" fill="white"/>
<path fill-rule="evenodd" clip-rule="evenodd" d="M128.366 16.6857C127.264 17.3698 126.645 18.6196 126.768 19.9109C126.642 21.2037 127.261 22.4559 128.364 23.1414C129.467 23.8269 130.864 23.8269 131.967 23.1414C133.071 22.4559 133.689 21.2037 133.563 19.9109C133.687 18.6196 133.068 17.3698 131.965 16.6857C130.863 16.0017 129.468 16.0017 128.366 16.6857ZM130.168 17.4359C131.399 17.4359 132.101 18.3492 132.101 19.9109C132.101 21.4789 131.399 22.3914 130.168 22.3914C128.932 22.3914 128.237 21.4852 128.237 19.911C128.237 18.3492 128.932 17.4359 130.168 17.4359Z" fill="white"/>
<path d="M135.471 16.3117H136.839V17.4562H136.946C137.315 16.6135 138.179 16.0981 139.096 16.1726C139.806 16.1192 140.502 16.3916 140.987 16.9129C141.472 17.4342 141.694 18.1478 141.589 18.8523V23.5163H140.168V19.2093C140.168 18.0515 139.664 17.4757 138.613 17.4757C138.131 17.4533 137.664 17.6423 137.333 17.9933C137.002 18.3442 136.842 18.822 136.893 19.3015V23.5164H135.471V16.3117Z" fill="white"/>
<path d="M149.624 14.5179V16.3445H151.185V17.5422H149.624V21.2469C149.624 22.0015 149.935 22.332 150.643 22.332C150.824 22.3314 151.005 22.3205 151.185 22.2992V23.4836C150.929 23.5292 150.671 23.5535 150.411 23.5562C148.83 23.5562 148.2 23 148.2 21.6109V17.5421H147.057V16.3444H148.2V14.5179H149.624Z" fill="white"/>
<path d="M153.127 13.4992H154.536V17.4695H154.649C155.036 16.6195 155.915 16.1033 156.846 16.1789C157.552 16.1405 158.238 16.4189 158.718 16.9383C159.198 17.4577 159.421 18.164 159.327 18.8648V23.5164H157.904V19.2156C157.904 18.0648 157.368 17.482 156.363 17.482C155.868 17.4414 155.381 17.6213 155.031 17.9734C154.681 18.3256 154.505 18.8142 154.549 19.3086V23.5164H153.127L153.127 13.4992Z" fill="white"/>
<path fill-rule="evenodd" clip-rule="evenodd" d="M164.496 23.6555C165.904 23.8082 167.219 22.9301 167.617 21.5711L166.249 21.5711C165.907 22.1829 165.23 22.528 164.535 22.4445C163.998 22.4504 163.484 22.2298 163.119 21.8369C162.753 21.4439 162.571 20.9151 162.616 20.3805V20.3008H167.703V19.8047C167.703 17.5423 166.494 16.1727 164.489 16.1727C163.526 16.1645 162.607 16.5746 161.97 17.2967C161.332 18.0189 161.04 18.9821 161.167 19.9367C161.036 20.8887 161.33 21.8504 161.971 22.5665C162.612 23.2826 163.535 23.6808 164.496 23.6555ZM166.255 19.2492H162.616C162.609 18.7524 162.804 18.2741 163.155 17.9226C163.506 17.5712 163.985 17.3766 164.481 17.3828C164.972 17.3716 165.444 17.5679 165.782 17.9233C166.119 18.2787 166.291 18.7603 166.255 19.2492Z" fill="white"/>
</svg>
