<svg width="32" height="14" viewBox="0 0 32 14" fill="none" xmlns="http://www.w3.org/2000/svg">
<path d="M5.84902 2.04698C5.47302 2.49498 4.87402 2.84999 4.27602 2.79799C4.19702 2.19399 4.49502 1.54698 4.83902 1.14598C5.21402 0.688985 5.87002 0.360984 6.40202 0.333984C6.46502 0.964984 6.21902 1.58498 5.85002 2.04698H5.84902ZM6.39602 2.91698C5.52702 2.86398 4.78102 3.41599 4.36902 3.41599C3.94802 3.41599 3.31702 2.94298 2.63002 2.95898C1.73902 2.96998 0.906024 3.47899 0.453024 4.29799C-0.489976 5.92698 0.208024 8.33898 1.11402 9.66698C1.55702 10.323 2.08702 11.042 2.78602 11.022C3.44702 10.995 3.71302 10.585 4.51002 10.585C5.31702 10.585 5.54602 11.022 6.25002 11.006C6.97302 10.995 7.43102 10.35 7.87402 9.69398C8.37902 8.94899 8.58702 8.21899 8.59802 8.18299C8.58702 8.16699 7.19702 7.63098 7.18702 6.01598C7.17602 4.66098 8.28002 4.01598 8.32702 3.97898C7.70702 3.04198 6.72802 2.94299 6.39502 2.91798L6.39602 2.91698ZM11.412 1.08298V10.938H12.927V7.56898H15.022C16.933 7.56898 18.277 6.24098 18.277 4.32399C18.277 2.40299 16.96 1.08398 15.074 1.08398L11.412 1.08298ZM12.927 2.37498H14.672C15.984 2.37498 16.735 3.08298 16.735 4.32798C16.735 5.57298 15.984 6.28698 14.662 6.28698H12.927V2.37498ZM21.036 11.011C21.989 11.011 22.869 10.527 23.271 9.75498H23.303V10.938H24.703V6.03098C24.703 4.61498 23.579 3.69398 21.844 3.69398C20.24 3.69398 19.052 4.62599 19.011 5.90199H20.37C20.485 5.29298 21.037 4.89699 21.803 4.89699C22.73 4.89699 23.246 5.33398 23.246 6.13698V6.67799L21.361 6.79298C19.6 6.90199 18.652 7.62599 18.652 8.89198C18.652 10.168 19.632 11.012 21.037 11.012L21.036 11.011ZM21.448 9.84398C20.64 9.84398 20.125 9.45298 20.125 8.85498C20.125 8.23498 20.62 7.86999 21.562 7.81199L23.245 7.70798V8.26498C23.245 9.18798 22.469 9.84398 21.442 9.84398H21.448ZM26.573 13.62C28.046 13.62 28.74 13.047 29.344 11.323L32 3.79198H30.464L28.683 9.60898H28.651L26.87 3.79198H25.287L27.85 10.964L27.714 11.401C27.479 12.136 27.105 12.421 26.438 12.421C26.318 12.421 26.089 12.406 25.995 12.396V13.579C26.083 13.604 26.459 13.615 26.568 13.615L26.573 13.62Z" fill="#222222"/>
</svg>
