<svg width="20" height="20" viewBox="0 0 20 20" fill="none" xmlns="http://www.w3.org/2000/svg">
<path d="M9.9999 13.3334C9.80519 13.3338 9.6165 13.266 9.46657 13.1417L4.46657 8.97507C4.29639 8.83362 4.18937 8.63036 4.16905 8.41C4.14874 8.18965 4.21679 7.97025 4.35824 7.80007C4.49969 7.62989 4.70295 7.52287 4.9233 7.50255C5.14366 7.48223 5.36306 7.55028 5.53324 7.69173L9.9999 11.4251L14.4666 7.82507C14.5518 7.75585 14.6499 7.70415 14.7552 7.67296C14.8605 7.64177 14.9709 7.63169 15.0801 7.6433C15.1892 7.65492 15.2951 7.688 15.3914 7.74065C15.4878 7.79329 15.5728 7.86446 15.6416 7.95007C15.7179 8.03575 15.7757 8.13627 15.8113 8.24533C15.847 8.3544 15.8598 8.46965 15.8488 8.58387C15.8379 8.69809 15.8034 8.80881 15.7477 8.90911C15.692 9.00941 15.6161 9.09711 15.5249 9.16673L10.5249 13.1917C10.3707 13.2963 10.1858 13.3462 9.9999 13.3334V13.3334Z" fill="#82837F"/>
</svg>
