<?xml version="1.0" encoding="UTF-8"?>
<svg width="30pt" height="30pt" version="1.1" viewBox="0 0 700 700" fill="#6a9aad" xmlns="http://www.w3.org/2000/svg" xmlns:xlink="http://www.w3.org/1999/xlink">
 <g>
  <path d="m234.64 455.84c-7.8398 0-15.68-4.4805-20.16-11.199-5.6016-11.199-2.2383-24.641 8.9609-30.238l238.56-129.92c1.1211-1.1211 2.2383-2.2383 2.2383-3.3594s-1.1211-3.3594-2.2383-3.3594l-237.44-132.16c-11.199-5.6016-14.559-19.039-8.9609-30.238 5.6016-11.199 19.039-14.559 30.238-8.9609l238.56 131.04c15.68 8.9609 25.762 24.641 25.762 42.559 0 17.922-10.078 34.719-25.762 42.559l-238.56 131.04c-3.3594 2.2383-6.7188 2.2383-11.199 2.2383z"/>
 </g>
</svg>
