<svg width="7" height="12" viewBox="0 0 7 12" fill="none" xmlns="http://www.w3.org/2000/svg">
<path d="M6.33242 6.0001C6.3328 6.19481 6.26499 6.3835 6.14076 6.53343L1.97409 11.5334C1.83264 11.7036 1.62938 11.8106 1.40903 11.8309C1.18867 11.8513 0.969271 11.7832 0.79909 11.6418C0.62891 11.5003 0.52189 11.2971 0.501573 11.0767C0.481257 10.8563 0.549308 10.6369 0.690757 10.4668L4.42409 6.0001L0.82409 1.53343C0.754869 1.44819 0.703175 1.35011 0.671982 1.24483C0.640789 1.13954 0.630711 1.02913 0.642327 0.919944C0.653943 0.810753 0.687024 0.704935 0.739669 0.608571C0.792313 0.512207 0.863484 0.427197 0.94909 0.358428C1.03477 0.282112 1.1353 0.224312 1.24436 0.188652C1.35342 0.152991 1.46867 0.140239 1.58289 0.151192C1.69711 0.162144 1.80784 0.196566 1.90813 0.252302C2.00843 0.308038 2.09614 0.383887 2.16576 0.475096L6.19076 5.4751C6.29535 5.62933 6.34523 5.81418 6.33242 6.0001V6.0001Z" fill="#82837F"/>
</svg>
