<svg width="101" height="100" viewBox="0 0 101 100" fill="none" xmlns="http://www.w3.org/2000/svg">
<path d="M50.9998 24.9844H50.9991C37.7501 24.9844 27.0098 35.7247 27.0098 48.9737V48.9744C27.0098 62.2233 37.7501 72.9637 50.9991 72.9637H50.9998C64.2487 72.9637 74.989 62.2233 74.989 48.9744V48.9737C74.989 35.7247 64.2487 24.9844 50.9998 24.9844Z" fill="#E2DCD1"/>
<path d="M40.4688 49.1799L47.3937 56.1049L61.5316 41.9656" stroke="white" stroke-width="5" stroke-linecap="round" stroke-linejoin="round"/>
<path d="M75.3555 76.6001C77.4088 77.0755 79.24 78.2339 80.549 79.8858C81.5564 81.6644 82.1753 83.6363 82.3648 85.6715" stroke="#E2DCD1" stroke-opacity="0.3" stroke-width="2" stroke-linecap="round" stroke-linejoin="round"/>
<path d="M23.1279 60.2449C21.6157 61.9856 17.6579 65.1099 13.9193 63.6806C9.24643 61.8949 9.38357 59.1449 10.8957 58.0456C12.4079 56.9463 14.4671 58.7327 14.8814 60.2449C15.2957 61.757 14.6064 66.842 10.8957 68.7663C7.185 70.6906 2.23714 69.7285 1 68.7663" stroke="#E2DCD1" stroke-opacity="0.3" stroke-width="2" stroke-linecap="round" stroke-linejoin="round"/>
<path d="M82.7077 11.5912C80.922 11.362 77.1827 12.4155 76.5227 18.4634C75.8627 24.5112 70.5677 25.7477 68.002 25.6098" stroke="#E2DCD1" stroke-opacity="0.3" stroke-width="2" stroke-linecap="round" stroke-linejoin="round"/>
<path d="M15.363 39.8049C17.1848 39.8049 18.6616 38.3281 18.6616 36.5063C18.6616 34.6846 17.1848 33.2078 15.363 33.2078C13.5413 33.2078 12.0645 34.6846 12.0645 36.5063C12.0645 38.3281 13.5413 39.8049 15.363 39.8049Z" fill="#E2DCD1" fill-opacity="0.3"/>
<path d="M35.3091 13.3778C36.8271 13.3778 38.0577 12.1472 38.0577 10.6292C38.0577 9.11119 36.8271 7.88062 35.3091 7.88062C33.7911 7.88062 32.5605 9.11119 32.5605 10.6292C32.5605 12.1472 33.7911 13.3778 35.3091 13.3778Z" fill="#E2DCD1" fill-opacity="0.3"/>
<path d="M43.6927 17.4829C44.5985 17.4829 45.3327 16.7486 45.3327 15.8429C45.3327 14.9371 44.5985 14.2029 43.6927 14.2029C42.787 14.2029 42.0527 14.9371 42.0527 15.8429C42.0527 16.7486 42.787 17.4829 43.6927 17.4829Z" fill="#E2DCD1" fill-opacity="0.3"/>
<path d="M87.5175 49.9259C89.1495 49.9259 90.4725 48.6029 90.4725 46.9709C90.4725 45.3389 89.1495 44.0159 87.5175 44.0159C85.8855 44.0159 84.5625 45.3389 84.5625 46.9709C84.5625 48.6029 85.8855 49.9259 87.5175 49.9259Z" fill="#E2DCD1" fill-opacity="0.3"/>
<path d="M26.082 83.4608C27.714 83.4608 29.037 82.1378 29.037 80.5058C29.037 78.8738 27.714 77.5508 26.082 77.5508C24.45 77.5508 23.127 78.8738 23.127 80.5058C23.127 82.1378 24.45 83.4608 26.082 83.4608Z" fill="#E2DCD1" fill-opacity="0.3"/>
<path d="M62.9179 92.12C64.5499 92.12 65.8729 90.797 65.8729 89.165C65.8729 87.533 64.5499 86.21 62.9179 86.21C61.2859 86.21 59.9629 87.533 59.9629 89.165C59.9629 90.797 61.2859 92.12 62.9179 92.12Z" fill="#E2DCD1" fill-opacity="0.3"/>
<path d="M53.7767 87.8493C54.6825 87.8493 55.4167 87.1151 55.4167 86.2093C55.4167 85.3036 54.6825 84.5693 53.7767 84.5693C52.871 84.5693 52.1367 85.3036 52.1367 86.2093C52.1367 87.1151 52.871 87.8493 53.7767 87.8493Z" fill="#E2DCD1"/>
</svg>
