<svg width="32" height="32" viewBox="0 0 32 32" fill="none" xmlns="http://www.w3.org/2000/svg">
<path d="M21.6569 17.0002C22.2091 17.0002 22.6569 16.5525 22.6569 16.0002C22.6569 15.4479 22.2091 15.0002 21.6569 15.0002V17.0002ZM10.3431 15.0002C9.79086 15.0002 9.34315 15.4479 9.34315 16.0002C9.34315 16.5525 9.79086 17.0002 10.3431 17.0002V15.0002ZM17 10.3434C17 9.79108 16.5523 9.34337 16 9.34337C15.4477 9.34337 15 9.79108 15 10.3434H17ZM15 21.6571C15 22.2094 15.4477 22.6571 16 22.6571C16.5523 22.6571 17 22.2094 17 21.6571H15ZM21.6569 15.0002H10.3431V17.0002H21.6569V15.0002ZM15 10.3434V21.6571H17V10.3434H15ZM24.721 24.7212C19.9046 29.5376 12.0954 29.5376 7.27902 24.7212L5.8648 26.1354C11.4623 31.7329 20.5377 31.7329 26.1352 26.1354L24.721 24.7212ZM7.27902 24.7212C2.46255 19.9047 2.46259 12.0957 7.27902 7.27924L5.8648 5.86503C0.267336 11.4625 0.267284 20.5379 5.8648 26.1354L7.27902 24.7212ZM7.27902 7.27924C12.0955 2.46277 19.9045 2.46277 24.721 7.27924L26.1352 5.86503C20.5377 0.267509 11.4623 0.267509 5.8648 5.86503L7.27902 7.27924ZM24.721 7.27924C29.5374 12.0957 29.5374 19.9047 24.721 24.7212L26.1352 26.1354C31.7327 20.5379 31.7327 11.4625 26.1352 5.86503L24.721 7.27924Z"/>
</svg>
