<svg width="33" height="13" viewBox="0 0 33 13" fill="none" xmlns="http://www.w3.org/2000/svg">
<path d="M32.9998 3.33301L28.8228 12.666H27.5308L29.0828 9.40001L26.3328 3.33201H27.6918L29.6818 7.98301H29.7078L31.6348 3.33201L32.9998 3.33301ZM15.6458 6.21901V10H14.3328V0.667008H17.8068C18.6314 0.644403 19.4345 0.93243 20.0568 1.47401C20.6718 1.97901 21.0098 2.69301 20.9998 3.44801C21.004 3.82796 20.9213 4.20384 20.7578 4.54687C20.5943 4.88989 20.3546 5.19096 20.0568 5.42701C19.4528 5.95801 18.7028 6.21901 17.8068 6.21901H15.6458ZM15.6408 1.81801V5.07301H17.8388C18.3173 5.09017 18.7833 4.91807 19.1358 4.59401C19.4748 4.29201 19.6618 3.88001 19.6618 3.45301C19.6618 3.02101 19.4738 2.60901 19.1358 2.31201C18.9632 2.1477 18.7596 2.01934 18.537 1.93436C18.3143 1.84939 18.077 1.8095 17.8388 1.81701L15.6408 1.81801ZM23.6298 3.33301C24.4628 3.33301 25.1248 3.56701 25.6088 4.03101C26.0928 4.49501 26.3328 5.13001 26.3328 5.93701V9.79601H25.2498V8.92601H25.2028C24.7338 9.64001 24.1138 9.99901 23.3378 9.99901C22.6708 9.99901 22.1188 9.79601 21.6708 9.38401C21.4546 9.19267 21.2826 8.95668 21.1666 8.69235C21.0506 8.42801 20.9933 8.14163 20.9988 7.85301C20.9988 7.20701 21.2328 6.69201 21.7068 6.30601C22.1758 5.92601 22.8058 5.73301 23.5918 5.73301C24.2638 5.73301 24.8158 5.86301 25.2478 6.11801V5.84701C25.2492 5.65029 25.2085 5.45554 25.1285 5.27583C25.0485 5.09611 24.9309 4.93558 24.7838 4.80501C24.4874 4.52758 24.0957 4.3747 23.6898 4.37801C23.0598 4.37801 22.5598 4.65401 22.1898 5.20601L21.1948 4.56001C21.7418 3.74201 22.5538 3.33101 23.6268 3.33101L23.6298 3.33301ZM22.1668 7.88001C22.1646 8.0282 22.1974 8.17482 22.2625 8.30793C22.3277 8.44104 22.4234 8.55688 22.5418 8.64601C22.7918 8.84901 23.1048 8.95901 23.4218 8.95301C23.8958 8.95301 24.3538 8.75501 24.6928 8.40601C25.0518 8.07301 25.2558 7.60401 25.2558 7.11401C24.9018 6.82201 24.4118 6.67601 23.7818 6.67601C23.3178 6.67601 22.9378 6.79101 22.6308 7.02001C22.3238 7.25401 22.1668 7.53601 22.1668 7.87901V7.88001ZM6.4428 0.667008C7.78919 0.650769 9.09119 1.14818 10.0838 2.05801L8.5318 3.57901C7.96484 3.05301 7.21603 2.76732 6.4428 2.78201C5.76802 2.78531 5.11105 2.99876 4.56318 3.39267C4.01532 3.78659 3.60379 4.34141 3.3858 4.98001C3.15675 5.64141 3.15675 6.36061 3.3858 7.02201C3.60379 7.6606 4.01532 8.21542 4.56318 8.60934C5.11105 9.00326 5.76802 9.2167 6.4428 9.22001C7.1768 9.22001 7.8078 9.03801 8.2968 8.71501C8.57813 8.5318 8.81922 8.29325 9.00541 8.01389C9.1916 7.73452 9.31898 7.42018 9.3798 7.09001H6.4418V5.03801H11.5718C11.6348 5.39701 11.6658 5.75701 11.6658 6.12101C11.6658 7.74601 11.0718 9.12101 10.0458 10.048C9.14479 10.861 7.9108 11.334 6.4418 11.334C5.4391 11.3391 4.45443 11.0676 3.5961 10.5492C2.73777 10.0309 2.03905 9.28581 1.5768 8.39601C1.19674 7.65451 0.998535 6.83323 0.998535 6.00001C0.998535 5.16678 1.19674 4.34551 1.5768 3.60401C2.03849 2.71505 2.73626 1.97052 3.59345 1.45222C4.45064 0.93392 5.4341 0.661889 6.4358 0.666009L6.4428 0.667008Z" fill="#222222"/>
</svg>
