<svg width="24" height="21" viewBox="0 0 24 21" fill="none" xmlns="http://www.w3.org/2000/svg">
<path d="M11.2847 20.3386C11.4723 20.5249 11.7257 20.6296 11.9901 20.6296C12.2542 20.6296 12.5079 20.5249 12.6952 20.3386L21.9982 11.0357C23.3071 9.78526 24.0328 8.04407 23.9989 6.23412C23.9989 6.02736 23.9821 5.82059 23.9488 5.61381C23.6849 3.69936 22.5828 2.0015 20.9417 0.980605C19.3003 -0.0400081 17.29 -0.277627 15.4562 0.332168C14.595 0.634048 13.8173 1.1342 13.1853 1.79269L12.7651 2.21292L12.7653 2.2127C12.4806 2.49493 12.2227 2.80306 11.995 3.13311C11.7668 2.80354 11.5091 2.49542 11.2246 2.2127L10.8044 1.79247L10.8046 1.79269C10.1727 1.1342 9.39501 0.634037 8.53376 0.332168C6.7026 -0.274026 4.69682 -0.0358073 3.05835 0.982377C1.42011 2.00053 0.318384 3.69353 0.0511556 5.60397C0.0511556 5.81409 0.0511556 6.01415 0.00113958 6.21423V6.214C-0.0327999 8.02396 0.692676 9.76537 2.00178 11.0155L11.2847 20.3386ZM1.99203 5.88372C2.13471 4.91444 2.58845 4.01769 3.28484 3.32867C3.9813 2.63937 4.88244 2.19505 5.85332 2.06244C6.06634 2.04815 6.28025 2.04815 6.49347 2.06244C6.97287 2.06355 7.44915 2.14103 7.90398 2.29264C8.47269 2.50409 8.98336 2.84684 9.3944 3.29296L9.81463 3.71319V3.71297C10.2235 4.10617 10.541 4.58422 10.7448 5.11342C10.9018 5.56758 10.9862 6.0436 10.9949 6.52393C10.9949 6.88141 11.1856 7.21163 11.4951 7.39026C11.8045 7.56889 12.1859 7.56889 12.4954 7.39026C12.8048 7.21163 12.9955 6.88139 12.9955 6.52393C12.9967 6.01997 13.0811 5.51983 13.2456 5.04357C13.4497 4.51438 13.7672 4.03633 14.1758 3.64312L14.596 3.22289C15.0069 2.77654 15.5178 2.43355 16.0864 2.22257C17.361 1.78873 18.7625 1.94815 19.9071 2.65686C21.0516 3.36578 21.8189 4.54964 21.9984 5.88378V6.31383C22.0151 7.56 21.5112 8.75633 20.608 9.61489L11.995 18.2279L3.38192 9.62518C2.4814 8.76908 1.97746 7.57675 1.99153 6.33418V5.88403L1.99203 5.88372Z"/>
</svg>
