<svg width="66" height="66" viewBox="0 0 66 66" fill="none" xmlns="http://www.w3.org/2000/svg">
<g clip-path="url(#clip0_0_2153)">
<path d="M22.6538 55.0558L19.8148 56.8311L20.0768 53.493C20.1449 52.6247 20.339 51.5129 20.7542 50.5564L20.8043 50.4412L20.8708 50.3346C20.9882 50.1467 21.0009 50.0399 21.0027 50.0059C21.0045 49.9729 21.0002 49.9324 20.9672 49.8674C20.8834 49.7022 20.6389 49.4477 20.2172 49.2526L20.1999 49.2446L20.1828 49.2362C10.0112 44.2481 7.83578 32.671 11.6428 21.8664C13.345 16.9526 17.1616 13.4369 21.3386 10.9417C25.5243 8.44119 30.2288 6.86931 33.9917 5.90157L34.0332 5.89091L34.0751 5.88236C44.1041 3.83886 51.6663 5.99709 56.5526 10.6456C61.3983 15.2557 63.3355 22.0564 62.6752 28.7689C62.0139 35.4906 58.7413 42.281 52.9507 47.0034C47.1301 51.7502 38.8805 54.3151 28.4631 52.7673C27.5653 52.6373 26.7084 52.8204 25.7625 53.2437C24.939 53.6123 24.1534 54.109 23.2451 54.6833C23.054 54.8042 22.8573 54.9285 22.6538 55.0558Z" stroke="black" stroke-width="3.375"/>
<path d="M33.9315 31.5171C35.1032 32.5391 36.276 33.5611 37.4478 34.5822C38.0506 35.1074 39.7069 36.6409 40.5073 36.7018C41.6553 36.7891 43.552 34.8944 44.69 34.7235C45.5053 34.6018 46.9342 35.3361 47.6691 35.7053C48.5926 36.1697 49.0097 36.6124 49.8289 37.2928C50.9173 38.1979 51.0672 39.1031 50.9362 40.0809C50.8547 40.6926 50.4118 41.1903 49.961 41.6164C49.3483 42.1947 48.5032 42.983 47.685 43.198C46.4228 43.5288 45.1567 43.3207 43.9412 42.8485C42.0942 42.1308 39.978 41.2571 38.3177 40.184C35.7418 38.52 31.719 35.1329 29.7955 32.7591C26.5383 28.7388 25.5363 26.8293 23.8373 21.9598C23.5086 21.0193 23.4301 18.9429 23.8373 18.0328C24.2206 17.1758 25.021 16.0556 25.8968 15.6963C26.3228 15.5215 26.7707 15.3684 27.2315 15.3752C28.2007 15.3899 29.001 16.089 29.7061 16.7467C31.0149 17.969 32.4141 19.3739 32.5134 21.1518C32.5889 22.5057 31.8818 23.7702 31.1609 24.9227C30.9335 25.287 30.6961 25.663 30.6386 26.0881C30.572 26.574 30.7498 27.0571 30.9444 27.5077C31.6336 29.102 32.7597 30.2311 33.9315 31.5171" fill="black"/>
<path d="M33.9315 31.5171C35.1032 32.5391 36.276 33.5611 37.4478 34.5822C38.0506 35.1074 39.7069 36.6409 40.5073 36.7018C41.6553 36.7891 43.552 34.8944 44.69 34.7235C45.5053 34.6018 46.9342 35.3361 47.6691 35.7053C48.5926 36.1697 49.0097 36.6124 49.8289 37.2928C50.9173 38.1979 51.0672 39.1031 50.9362 40.0809C50.8547 40.6926 50.4118 41.1903 49.961 41.6164C49.3483 42.1947 48.5032 42.983 47.685 43.198C46.4228 43.5288 45.1567 43.3207 43.9412 42.8485C42.0942 42.1308 39.978 41.2571 38.3177 40.184C35.7418 38.52 31.719 35.1329 29.7955 32.7591C26.5383 28.7388 25.5363 26.8293 23.8373 21.9598C23.5086 21.0193 23.4301 18.9429 23.8373 18.0328C24.2206 17.1758 25.021 16.0556 25.8968 15.6963C26.3228 15.5215 26.7707 15.3684 27.2315 15.3752C28.2007 15.3899 29.001 16.089 29.7061 16.7467C31.0149 17.969 32.4141 19.3739 32.5134 21.1518C32.5889 22.5057 31.8818 23.7702 31.1609 24.9227C30.9335 25.287 30.6961 25.663 30.6386 26.0881C30.572 26.574 30.7498 27.0571 30.9444 27.5077C31.6336 29.102 32.7597 30.2311 33.9315 31.5171" stroke="black" stroke-width="1.6875"/>
<ellipse cx="54.2592" cy="11.5781" rx="11.5659" ry="11.3906" fill="black"/>
<path d="M52.0384 15.2512C54.0522 14.88 55.5766 14.6944 56.6116 14.6944C57.6578 14.6944 58.1809 14.9194 58.1809 15.3694C58.1809 15.7969 57.2866 16.2581 55.4978 16.7531C53.7203 17.2481 52.3534 17.4956 51.3972 17.4956C51.0034 17.4956 50.5253 17.2425 49.9628 16.7362C49.4003 16.23 49.1191 15.78 49.1191 15.3862C49.1191 15.1275 49.8391 14.4075 51.2791 13.2262C51.8753 12.7312 52.4716 12.2137 53.0678 11.6737C53.6641 11.1225 54.1703 10.56 54.5866 9.98625C55.0141 9.4125 55.2278 8.90062 55.2278 8.45062C55.2278 7.98937 55.0141 7.75875 54.5866 7.75875C54.2603 7.75875 53.9678 7.8825 53.7091 8.13C53.4616 8.36625 53.2647 8.60812 53.1184 8.85563C52.9834 9.09187 52.8822 9.21 52.8147 9.21C52.5222 9.21 52.1509 9.0525 51.7009 8.7375C51.2622 8.41125 51.0428 8.13 51.0428 7.89375C51.0428 7.2525 51.3803 6.645 52.0553 6.07125C52.7416 5.48625 53.5628 5.19375 54.5191 5.19375C55.4866 5.19375 56.2459 5.49187 56.7972 6.08812C57.3484 6.67312 57.6241 7.42125 57.6241 8.3325C57.6241 9.55875 57.0953 10.7906 56.0378 12.0281C54.9916 13.2656 53.6584 14.34 52.0384 15.2512Z" fill="white"/>
</g>
<defs>
<clipPath id="clip0_0_2153">
<rect width="66" height="66" fill="white"/>
</clipPath>
</defs>
</svg>
