<?xml version="1.0" encoding="UTF-8"?>
<svg width="198px" height="48px" viewBox="0 0 198 48" version="1.1" xmlns="http://www.w3.org/2000/svg" xmlns:xlink="http://www.w3.org/1999/xlink">
    <title>LOGO</title>
    <g id="Blog" stroke="none" stroke-width="1" fill="none" fill-rule="evenodd">
        <g id="Blog-page-(1280+)" transform="translate(-48.000000, -33.000000)">
            <g id="LOGO" transform="translate(48.000000, 33.000000)">
                <g id="Group" transform="translate(13.000000, 12.166667)"></g>
                <path d="M48,6 C51.3573417,6 54.4764557,6.88088608 57.1431223,8.42843883 C59.809789,9.97599158 62.0240084,12.190211 63.5715612,14.8568777 C65.1191139,17.5235443 66,20.6426583 66,24 C66,27.3573417 65.1191139,30.4764557 63.5715612,33.1431223 C62.0240084,35.809789 59.809789,38.0240084 57.1431223,39.5715612 C54.4764557,41.1191139 51.3573417,42 48,42 L18,42 C14.6426583,42 11.5235443,41.1191139 8.85687767,39.5715612 C6.190211,38.0240084 3.97599158,35.809789 2.42843883,33.1431223 C0.880886083,30.4764557 -2.143944e-17,27.3573417 -2.143944e-17,24 C-2.143944e-17,20.6426583 0.880886083,17.5235443 2.42843883,14.8568777 C3.97599158,12.190211 6.190211,9.97599158 8.85687767,8.42843883 C11.5235443,6.88088608 14.6426583,6 18,6 L48,6 Z M48,9 L18,9 C15.2446922,9 12.6354948,9.70416862 10.362677,11.0231581 C8.1475486,12.3086687 6.30866867,14.1475486 5.02315813,16.362677 C3.70416862,18.6354948 3,21.2446922 3,24 C3,26.7553078 3.70416862,29.3645052 5.02315813,31.637323 C6.30866867,33.8524514 8.1475486,35.6913313 10.362677,36.9768419 C12.5092271,38.2225542 14.9558196,38.9198614 17.5421675,38.9934952 L18,39 L48,39 C50.7553078,39 53.3645052,38.2958314 55.637323,36.9768419 C57.8524514,35.6913313 59.6913313,33.8524514 60.9768419,31.637323 C62.2958314,29.3645052 63,26.7553078 63,24 C63,21.2446922 62.2958314,18.6354948 60.9768419,16.362677 C59.6913313,14.1475486 57.8524514,12.3086687 55.637323,11.0231581 C53.4907729,9.77744581 51.0441804,9.08013855 48.4578325,9.00650476 L48,9 Z" id="Rectangle-Copy-24" fill="#C45EB7" fill-rule="nonzero"></path>
                <rect id="Rectangle-Copy-25" fill="#C45EB7" x="30" y="7" width="35" height="35" rx="17.5"></rect>
                <path d="M56.9285942,31.8125995 C56.9285942,30.4793812 55.8478072,29.3985942 54.5145889,29.3985942 L48.0976127,29.3985942 L48.0976127,29.3985942 L51.7644562,26.8318037 C53.5163926,25.5891512 54.7794164,24.4330769 55.5535279,23.3635809 C56.3276393,22.2940849 56.714695,20.9546684 56.714695,19.3453316 C56.714695,17.3081963 55.9864191,15.6530239 54.5298674,14.3798143 C53.0733156,13.1066048 51.173687,12.47 48.8309814,12.47 C46.8549602,12.47 45.2150663,12.8366844 43.9112997,13.5700531 C42.6075332,14.3034218 41.3445093,15.4645889 40.1222281,17.0535544 L44.1251989,20.3842706 C44.9807958,19.3860743 45.729443,18.6781698 46.3711406,18.260557 C47.0128382,17.8429443 47.68,17.6341379 48.372626,17.6341379 C49.0856233,17.6341379 49.6611141,17.8276658 50.0990981,18.2147215 C50.5370822,18.6017772 50.7560743,19.1314324 50.7560743,19.803687 C50.7560743,20.4555703 50.5472679,21.0718037 50.1296552,21.6523873 C49.7120424,22.2329708 49.0041379,22.9001326 48.0059416,23.6538727 L41.2015812,28.848041 C40.4443247,29.4260993 40,30.324266 40,31.2769405 L40,31.9959416 C40,33.2279029 40.9987019,34.2266048 42.2306631,34.2266048 L54.5145889,34.2266048 C55.8478072,34.2266048 56.9285942,33.1458178 56.9285942,31.8125995 Z" id="2-copy-6" fill="#FFFFFF" fill-rule="nonzero"></path>
                <path d="M23.5727321,31.2945093 L23.5727321,14.8242706 C23.5727321,13.6344998 22.6082323,12.67 21.4184615,12.67 L19.6881404,12.67 C19.4068546,12.67 19.1269159,12.7088388 18.8562544,12.7854162 L15.271312,13.7996926 C14.0046439,14.158067 13.250045,15.4560037 13.565305,16.7340849 C13.8790477,18.0060146 15.1545626,18.7915678 16.431612,18.4993616 L17.7363395,18.2008223 L17.7363395,18.2008223 L17.7363395,31.2945093 C17.7363395,32.9061846 19.0428605,34.2127056 20.6545358,34.2127056 C22.2662111,34.2127056 23.5727321,32.9061846 23.5727321,31.2945093 Z" id="1-copy-5" fill="#C45EB7" fill-rule="nonzero"></path>
                <path d="M83.390411,38.8247126 L83.390411,31.6376404 L83.390411,31.6376404 C85.3628935,33.92603 87.7916967,35.0702247 90.6768205,35.0702247 C93.6208243,35.0702247 96.1158676,33.9333645 98.1619503,31.6596442 C100.208033,29.3859238 101.231074,26.3714107 101.231074,22.6161049 C101.231074,18.8901373 100.200673,15.8902934 98.1398702,13.616573 C96.0790675,11.3428527 93.5766643,10.2059925 90.6326604,10.2059925 C87.8358568,10.2059925 85.4217736,11.4382022 83.390411,13.9026217 L83.390411,13.4927031 C83.390411,11.9691589 82.1553344,10.7340824 80.6317903,10.7340824 L77.7586207,10.7340824 C76.2350766,10.7340824 75,11.9691589 75,13.4927031 L75,38.8247126 C75,40.3482568 76.2350766,41.5833333 77.7586207,41.5833333 L80.6317903,41.5833333 C82.1553344,41.5833333 83.390411,40.3482568 83.390411,38.8247126 Z M88.0713771,28.0730337 C86.7171353,28.0730337 85.5689738,27.559613 84.6268926,26.5327715 C83.6848113,25.5059301 83.2137707,24.2150437 83.2137707,22.6601124 C83.2137707,21.0758427 83.6848113,19.7702871 84.6268926,18.7434457 C85.5689738,17.7166042 86.7171353,17.2031835 88.0713771,17.2031835 C89.4550589,17.2031835 90.6179404,17.7092697 91.5600216,18.7214419 C92.5021029,19.7336142 92.9731435,21.017166 92.9731435,22.5720974 C92.9731435,24.1857054 92.5021029,25.5059301 91.5600216,26.5327715 C90.6179404,27.559613 89.4550589,28.0730337 88.0713771,28.0730337 Z M109.378605,31.7835141 L109.378605,21.6479401 L109.378605,21.6479401 C109.378605,20.386392 109.702445,19.4035581 110.350126,18.6994382 C110.997807,17.9953184 111.851568,17.6432584 112.91141,17.6432584 C113.941811,17.6432584 114.758772,17.9953184 115.362293,18.6994382 C115.965814,19.4035581 116.267574,20.386392 116.267574,21.6479401 L116.267574,31.7835141 C116.267574,33.3070583 117.50265,34.5421348 119.026195,34.5421348 L121.899364,34.5421348 C123.422908,34.5421348 124.657985,33.3070583 124.657985,31.7835141 L124.657985,18.9634831 L124.657985,18.9634831 C124.657985,16.2643571 123.936704,14.1299938 122.494142,12.5603933 C121.05158,10.9907928 119.064378,10.2059925 116.532534,10.2059925 C113.735731,10.2059925 111.351087,11.4675406 109.378605,13.9906367 L109.378605,5.17528736 C109.378605,3.65174322 108.143528,2.41666667 106.619984,2.41666667 L103.746815,2.41666667 C102.22327,2.41666667 100.988194,3.65174322 100.988194,5.17528736 L100.988194,31.7835141 C100.988194,33.3070583 102.22327,34.5421348 103.746815,34.5421348 L106.619984,34.5421348 C108.143528,34.5421348 109.378605,33.3070583 109.378605,31.7835141 Z M137.309841,35.1142322 C141.107606,35.1142322 144.26505,33.8966916 146.782174,31.4616105 C149.299297,29.0265293 150.557859,26.0926966 150.557859,22.6601124 C150.557859,19.1981898 149.306657,16.2570225 146.804254,13.8366105 C144.301851,11.4161985 141.166486,10.2059925 137.398161,10.2059925 C133.600397,10.2059925 130.442952,11.4235331 127.925829,13.8586142 C125.408706,16.2936954 124.150144,19.2275281 124.150144,22.6601124 C124.150144,26.122035 125.401346,29.0632022 127.903749,31.4836142 C130.406152,33.9040262 133.541516,35.1142322 137.309841,35.1142322 Z M137.398161,28.0290262 C135.9556,28.0290262 134.748558,27.5009363 133.777037,26.4447566 C132.805516,25.3885768 132.319755,24.1270287 132.319755,22.6601124 C132.319755,21.1345194 132.776075,19.8583021 133.688717,18.8314607 C134.601358,17.8046192 135.808399,17.2911985 137.309841,17.2911985 C138.752403,17.2911985 139.959445,17.8192884 140.930966,18.8754682 C141.902487,19.9316479 142.388248,21.193196 142.388248,22.6601124 C142.388248,24.1857054 141.931927,25.4619226 141.019286,26.488764 C140.106645,27.5156055 138.899603,28.0290262 137.398161,28.0290262 Z M158.617069,31.7835141 L158.617069,21.6479401 L158.617069,21.6479401 C158.617069,20.386392 158.94091,19.4035581 159.58859,18.6994382 C160.236271,17.9953184 161.090032,17.6432584 162.149874,17.6432584 C163.180275,17.6432584 163.997236,17.9953184 164.600757,18.6994382 C165.204278,19.4035581 165.506038,20.386392 165.506038,21.6479401 L165.506038,31.7835141 C165.506038,33.3070583 166.741115,34.5421348 168.264659,34.5421348 L171.137828,34.5421348 C172.661373,34.5421348 173.896449,33.3070583 173.896449,31.7835141 L173.896449,18.9634831 L173.896449,18.9634831 C173.896449,16.2643571 173.175168,14.1299938 171.732606,12.5603933 C170.290044,10.9907928 168.302842,10.2059925 165.770999,10.2059925 C163.003635,10.2059925 160.618992,11.4968789 158.617069,14.0786517 L158.617069,13.4927031 C158.617069,11.9691589 157.381993,10.7340824 155.858449,10.7340824 L152.985279,10.7340824 C151.461735,10.7340824 150.226658,11.9691589 150.226658,13.4927031 L150.226658,31.7835141 C150.226658,33.3070583 151.461735,34.5421348 152.985279,34.5421348 L155.858449,34.5421348 C157.381993,34.5421348 158.617069,33.3070583 158.617069,31.7835141 Z M186.195025,35.1142322 C190.552151,35.1142322 194.011355,33.5006242 196.572639,30.2734082 L191.935833,26.4447566 C190.287191,28.0583645 188.520788,28.8651685 186.636626,28.8651685 C183.869262,28.8651685 182.14702,27.559613 181.469899,24.9485019 L197.45584,24.9485019 C197.48528,24.5671036 197.5,23.9950062 197.5,23.2322097 C197.5,19.4769039 196.469599,16.3670412 194.408796,13.9026217 C192.347993,11.4382022 189.359829,10.2059925 185.444304,10.2059925 C181.94094,10.2059925 179.055816,11.4015293 176.788933,13.792603 C174.52205,16.1836767 173.388609,19.1395131 173.388609,22.6601124 C173.388609,26.3860799 174.58093,29.3932584 176.965573,31.6816479 C179.350216,33.9700375 182.4267,35.1142322 186.195025,35.1142322 Z M181.337419,20.6797753 C181.572939,19.3595506 182.05134,18.3107054 182.772621,17.5332397 C183.493902,16.755774 184.399183,16.3670412 185.488464,16.3670412 C186.636626,16.3670412 187.578707,16.755774 188.314708,17.5332397 C189.050709,18.3107054 189.49231,19.3595506 189.63951,20.6797753 L181.337419,20.6797753 Z" id="phone-copy-7" fill="#C45EB7" fill-rule="nonzero"></path>
            </g>
        </g>
    </g>
</svg>