<svg width="18" height="12" viewBox="0 0 18 12" fill="none" xmlns="http://www.w3.org/2000/svg">
<path d="M8.50781 10.5231L8.64225 10.6317C7.73087 11.2397 6.65927 11.5629 5.56369 11.5603C2.49019 11.5603 0 9.07354 0 6.00004C0 2.92935 2.49019 0.439723 5.56031 0.439723C6.7005 0.439723 7.76081 0.779474 8.64 1.36504C8.5967 1.40101 8.55539 1.43932 8.51625 1.47979C7.20169 2.61604 6.44569 4.26585 6.44569 6.00004C6.44569 7.73422 7.19888 9.38404 8.50838 10.5231H8.50781ZM12.4397 0.439723C11.3441 0.436353 10.2723 0.758404 9.36 1.36504C9.40444 1.40329 9.44831 1.44154 9.48375 1.47979C10.1331 2.04048 10.6541 2.7344 11.0114 3.51438C11.3687 4.29436 11.5538 5.14212 11.5543 6.00004C11.5543 7.73197 10.8011 9.38122 9.49162 10.5231C9.44706 10.5596 9.40225 10.5958 9.35719 10.6317C10.2684 11.24 11.3401 11.5633 12.4358 11.5603C15.5092 11.5603 17.9994 9.07354 17.9994 6.00004C17.9994 2.92935 15.5093 0.439723 12.4391 0.439723H12.4397ZM9 1.63222C8.33762 2.15139 7.80213 2.81454 7.43412 3.57141C7.06611 4.32828 6.87525 5.159 6.876 6.0006C6.87491 6.84265 7.0656 7.6739 7.43362 8.43128C7.80163 9.18865 8.33731 9.85227 9 10.3718C9.07369 10.3161 9.14119 10.2576 9.21094 10.1963C9.81222 9.67517 10.2943 9.03075 10.6244 8.30678C10.9545 7.58281 11.1249 6.79627 11.124 6.0006C11.1247 5.15902 10.9338 4.32833 10.5658 3.57147C10.1978 2.81461 9.66232 2.15145 9 1.63222Z" fill="#222222"/>
</svg>
