<?xml version="1.0" encoding="UTF-8"?>
<svg width="72px" height="72px" viewBox="0 0 72 72" version="1.1" xmlns="http://www.w3.org/2000/svg" xmlns:xlink="http://www.w3.org/1999/xlink">
    <title>Group 14@3x</title>
    <g id="Blog" stroke="none" stroke-width="1" fill="none" fill-rule="evenodd" stroke-linecap="round" stroke-linejoin="round">
        <g id="Area-code-(1280+)" transform="translate(-216.000000, -4400.000000)" stroke="#000000" stroke-width="5">
            <g id="Group-14" transform="translate(216.000000, 4400.000000)">
                <g id="phone-outgoing-01" transform="translate(8.500000, 4.500000)">
                    <path d="M57.4988,16.5 L57.4988,1.5 M57.4988,1.5 L42.4988,1.5 M57.4988,1.5 L39.4988,19.5 M25.1798,34.0893 C21.57518,30.4845 18.72881,26.4084 16.64084,22.05969 C16.46123,21.68562 16.37144,21.49857 16.30244,21.2619 C16.05728,20.42085 16.23338,19.38807 16.74341,18.67578 C16.88693,18.47535 17.05841,18.30387 17.40134,17.96094 C18.45014,16.91211 18.97457,16.38771 19.31741,15.86037 C20.61041,13.8717 20.61041,11.30796 19.31741,9.31929 C18.97457,8.79195 18.45014,8.26755 17.40134,7.21872 L16.81673,6.63411 C15.22241,5.03979 14.42522,4.24263 13.56908,3.80961 C11.8664,2.9484 9.85562,2.9484 8.15294,3.80961 C7.2968,4.24263 6.49961,5.03979 4.90529,6.63411 L4.4324,7.10703 C2.84351,8.69589 2.04908,9.49032 1.44233,10.57044 C0.76907,11.76894 0.28499,13.63041 0.289074027,15.0051 C0.29276,16.24392 0.53309,17.09061 1.01372,18.78393 C3.59663,27.8841 8.47004,36.4713 15.63398,43.635 C22.79792,50.799 31.385,55.6725 40.4852,58.2555 C42.1784,58.7361 43.0253,58.9764 44.264,58.9800271 C45.6386,58.9842 47.5001,58.5 48.6986,57.8268 C49.7789,57.2199 50.5733,56.4255 52.1621,54.8367 L52.6349,54.3639 C54.2294,52.7694 55.0265,51.9723 55.4594,51.1161 C56.3207,49.4136 56.3207,47.4027 55.4594,45.6999 C55.0265,44.844 54.2294,44.0466 52.6349,42.4524 L52.0505,41.8677 C51.0017,40.8189 50.4773,40.2945 49.9499,39.9516 C47.9612,38.6586 45.3974,38.6586 43.4087,39.9516 C42.8813,40.2945 42.3569,40.8189 41.3081,41.8677 C40.9652,42.2106 40.7939,42.3822 40.5932,42.5256 C39.881,43.0359 38.8484,43.212 38.0072,42.9666 C37.7705,42.8976 37.5836,42.8079 37.2095,42.6282 C32.8607,40.5402 28.7846,37.6938 25.1798,34.0893 Z" id="Shape"></path>
                </g>
            </g>
        </g>
    </g>
</svg>