<svg width="72" height="72" viewBox="0 0 72 72" fill="none" xmlns="http://www.w3.org/2000/svg">
<path d="M63.4988 21C63.4988 22.3807 64.6181 23.5 65.9988 23.5C67.3795 23.5 68.4988 22.3807 68.4988 21H63.4988ZM68.4988 6C68.4988 4.61929 67.3795 3.5 65.9988 3.5C64.6181 3.5 63.4988 4.61929 63.4988 6H68.4988ZM65.9988 8.5C67.3795 8.5 68.4988 7.38071 68.4988 6C68.4988 4.61929 67.3795 3.5 65.9988 3.5V8.5ZM50.9988 3.5C49.6181 3.5 48.4988 4.61929 48.4988 6C48.4988 7.38071 49.6181 8.5 50.9988 8.5V3.5ZM67.7666 7.76777C68.7429 6.79146 68.7429 5.20854 67.7666 4.23223C66.7902 3.25592 65.2073 3.25592 64.231 4.23223L67.7666 7.76777ZM46.231 22.2322C45.2547 23.2085 45.2547 24.7915 46.231 25.7678C47.2073 26.7441 48.7902 26.7441 49.7666 25.7678L46.231 22.2322ZM33.6798 38.5893L31.912 40.357L31.9121 40.3571L33.6798 38.5893ZM25.1408 26.5597L27.3945 25.4776L27.3945 25.4776L25.1408 26.5597ZM24.8024 25.7619L22.4023 26.4615L22.4024 26.4616L24.8024 25.7619ZM25.2434 23.1758L23.2108 21.7203L23.2108 21.7203L25.2434 23.1758ZM25.9013 22.4609L27.6691 24.2287L27.6691 24.2287L25.9013 22.4609ZM27.8174 20.3604L25.7215 18.9976L25.7214 18.9977L27.8174 20.3604ZM27.8174 13.8193L25.7214 15.182L25.7215 15.182L27.8174 13.8193ZM25.9013 11.7187L27.6691 9.95098L27.6691 9.95095L25.9013 11.7187ZM22.0691 8.30961L20.9407 10.5405L20.9407 10.5405L22.0691 8.30961ZM16.6529 8.30961L17.7813 10.5405L17.7813 10.5405L16.6529 8.30961ZM13.4053 11.1341L11.6375 9.36634L11.6375 9.3664L13.4053 11.1341ZM12.9324 11.607L14.7001 13.3748L14.7002 13.3747L12.9324 11.607ZM9.94232 15.0704L12.122 16.2949L12.122 16.2948L9.94232 15.0704ZM8.78909 19.5051L11.2891 19.4977L11.2891 19.4976L8.78909 19.5051ZM9.51371 23.2839L11.9187 22.6013L11.9187 22.6013L9.51371 23.2839ZM24.134 48.135L25.9017 46.3672L25.9017 46.3672L24.134 48.135ZM48.9852 62.7555L49.6678 60.3505H49.6678L48.9852 62.7555ZM52.764 63.48L52.7716 60.98L52.7713 60.98L52.764 63.48ZM57.1986 62.3268L58.4229 64.5065L58.4231 64.5064L57.1986 62.3268ZM63.9594 55.6161L61.7286 54.4875L61.7283 54.4881L63.9594 55.6161ZM63.9594 50.1999L61.7285 51.3282L61.7285 51.3283L63.9594 50.1999ZM61.1349 46.9524L59.3667 48.7197L59.3673 48.7203L61.1349 46.9524ZM60.5505 46.3677L62.3187 44.6004L62.3183 44.5999L60.5505 46.3677ZM58.4499 44.4516L57.0872 46.5475L57.0872 46.5475L58.4499 44.4516ZM51.9087 44.4516L53.2714 46.5475L53.2714 46.5475L51.9087 44.4516ZM49.0932 47.0256L47.6398 44.9915L47.6371 44.9934L49.0932 47.0256ZM46.5072 47.4666L47.2073 45.0666L47.2068 45.0665L46.5072 47.4666ZM45.7095 47.1282L46.792 44.8747L46.7916 44.8745L45.7095 47.1282ZM68.4988 21V6H63.4988V21H68.4988ZM65.9988 3.5H50.9988V8.5H65.9988V3.5ZM64.231 4.23223L46.231 22.2322L49.7666 25.7678L67.7666 7.76777L64.231 4.23223ZM35.4476 36.8216C32.0452 33.419 29.3621 29.5755 27.3945 25.4776L22.8871 27.6418C25.0955 32.2413 28.1051 36.55 31.912 40.357L35.4476 36.8216ZM27.3945 25.4776C27.2976 25.2758 27.2535 25.1831 27.2228 25.1125C27.2106 25.0843 27.2057 25.0714 27.2043 25.0676C27.2034 25.0652 27.2032 25.0646 27.2025 25.0622L22.4024 26.4616C22.54 26.9336 22.7301 27.3148 22.8872 27.6418L27.3945 25.4776ZM27.2025 25.0623C27.1721 24.9579 27.2127 24.7196 27.276 24.6312L23.2108 21.7203C22.254 23.0565 21.9424 24.8838 22.4023 26.4615L27.2025 25.0623ZM27.276 24.6313C27.2646 24.6472 27.2664 24.6404 27.323 24.58C27.3919 24.5063 27.4867 24.4111 27.6691 24.2287L24.1336 20.6932C23.8437 20.983 23.5007 21.3154 23.2108 21.7203L27.276 24.6313ZM27.6691 24.2287C28.6276 23.2702 29.3917 22.5255 29.9134 21.723L25.7214 18.9977C25.5575 19.2499 25.2727 19.554 24.1335 20.6932L27.6691 24.2287ZM29.9133 21.7231C31.7451 18.9058 31.7451 15.2738 29.9133 12.4565L25.7215 15.182C26.4757 16.3421 26.4757 17.8376 25.7215 18.9976L29.9133 21.7231ZM29.9134 12.4566C29.3917 11.6541 28.6276 10.9095 27.6691 9.95098L24.1335 13.4865C25.2727 14.6256 25.5575 14.9298 25.7214 15.182L29.9134 12.4566ZM27.6691 9.95095L27.0845 9.36634L23.549 12.9019L24.1336 13.4865L27.6691 9.95095ZM27.0845 9.36634C25.6291 7.91095 24.5002 6.73766 23.1974 6.07873L20.9407 10.5405C21.3502 10.7476 21.8157 11.1686 23.549 12.9019L27.0845 9.36634ZM23.1974 6.07874C20.7853 4.85869 17.9367 4.85869 15.5246 6.07874L17.7813 10.5405C18.7745 10.0381 19.9475 10.0381 20.9407 10.5405L23.1974 6.07874ZM15.5246 6.07873C14.2218 6.73766 13.0929 7.91095 11.6375 9.36634L15.173 12.9019C16.9063 11.1686 17.3718 10.7476 17.7813 10.5405L15.5246 6.07873ZM11.6375 9.3664L11.1646 9.83932L14.7002 13.3747L15.1731 12.9018L11.6375 9.3664ZM11.1646 9.83925C9.65222 11.3516 8.57327 12.403 7.76268 13.846L12.122 16.2948C12.5249 15.5776 13.0348 15.0401 14.7001 13.3748L11.1646 9.83925ZM7.76268 13.846C6.87814 15.4206 6.2837 17.7065 6.2891 19.5126L11.2891 19.4976C11.2863 18.5543 11.66 17.1172 12.122 16.2949L7.76268 13.846ZM6.2891 19.5125C6.29393 21.1482 6.64072 22.3178 7.10871 23.9666L11.9187 22.6013C11.4254 20.8634 11.2916 20.3396 11.2891 19.4977L6.2891 19.5125ZM7.10871 23.9665C9.80502 33.4663 14.8931 42.4299 22.3662 49.9028L25.9017 46.3672C19.0469 39.5127 14.3882 31.3019 11.9187 22.6013L7.10871 23.9665ZM22.3662 49.9028C29.8393 57.3759 38.8028 62.4641 48.3026 65.1605L49.6678 60.3505C40.9672 57.8809 32.7565 53.2221 25.9017 46.3672L22.3662 49.9028ZM48.3026 65.1605C49.9513 65.6285 51.1211 65.9752 52.7567 65.98L52.7713 60.98C51.9295 60.9776 51.4054 60.8437 49.6678 60.3505L48.3026 65.1605ZM52.7564 65.98C54.5626 65.9855 56.8485 65.3909 58.4229 64.5065L55.9743 60.1471C55.1517 60.6091 53.7146 60.9829 52.7716 60.98L52.7564 65.98ZM58.4231 64.5064C59.8662 63.6957 60.9175 62.6168 62.4299 61.1045L58.8943 57.5689C57.2291 59.2342 56.6916 59.7441 55.9741 60.1472L58.4231 64.5064ZM62.4299 61.1045L62.9027 60.6317L59.3671 57.0961L58.8943 57.5689L62.4299 61.1045ZM62.9027 60.6317C64.3581 59.1762 65.5316 58.0472 66.1904 56.7441L61.7283 54.4881C61.5214 54.8974 61.1006 55.3626 59.3671 57.0961L62.9027 60.6317ZM66.1902 56.7447C67.4105 54.3325 67.4104 51.4837 66.1902 49.0715L61.7285 51.3283C62.231 52.3217 62.2309 53.4947 61.7286 54.4875L66.1902 56.7447ZM66.1903 49.0716C65.5314 47.769 64.3584 46.6401 62.9025 45.1845L59.3673 48.7203C61.1004 50.4531 61.5215 50.919 61.7285 51.3282L66.1903 49.0716ZM62.9031 45.1851L62.3187 44.6004L58.7823 48.135L59.3667 48.7197L62.9031 45.1851ZM62.3183 44.5999C61.3597 43.6414 60.6151 42.8774 59.8126 42.3557L57.0872 46.5475C57.3395 46.7116 57.6437 46.9964 58.7827 48.1355L62.3183 44.5999ZM59.8126 42.3557C56.9953 40.5239 53.3633 40.5239 50.546 42.3557L53.2714 46.5475C54.4315 45.7933 55.9271 45.7933 57.0872 46.5475L59.8126 42.3557ZM50.546 42.3557C49.7435 42.8774 48.9989 43.6414 48.0403 44.5999L51.5759 48.1355C52.7149 46.9964 53.0191 46.7116 53.2714 46.5475L50.546 42.3557ZM48.0403 44.5999C47.8575 44.7828 47.7626 44.8773 47.6889 44.9463C47.6287 45.0026 47.6227 45.0037 47.6398 44.9915L50.5466 49.0597C50.9535 48.769 51.2876 48.4237 51.5759 48.1355L48.0403 44.5999ZM47.6371 44.9934C47.5491 45.0565 47.3115 45.097 47.2073 45.0666L45.8071 49.8666C47.3852 50.327 49.2129 50.0153 50.5493 49.0578L47.6371 44.9934ZM47.2068 45.0665C47.2043 45.0658 47.2038 45.0656 47.2013 45.0647C47.1977 45.0633 47.1848 45.0585 47.1567 45.0463C47.0863 45.0156 46.9936 44.9716 46.792 44.8747L44.627 49.3817C44.9545 49.539 45.3354 49.7291 45.8075 49.8667L47.2068 45.0665ZM46.7916 44.8745C42.6936 42.9069 38.8501 40.2238 35.4475 36.8215L31.9121 40.3571C35.7191 44.1638 40.0278 47.1735 44.6274 49.3819L46.7916 44.8745Z" fill="black"/>
</svg>
