<svg width="72" height="72" viewBox="0 0 72 72" fill="none" xmlns="http://www.w3.org/2000/svg">
<rect width="72" height="72" rx="8" fill="black"/>
<rect x="23.4492" y="8" width="1.93103" height="1.93103" fill="white"/>
<rect x="27.3105" y="8" width="1.93103" height="1.93103" fill="white"/>
<rect x="38.8965" y="8" width="1.93103" height="1.93103" fill="white"/>
<rect x="42.7578" y="8" width="1.93103" height="1.93103" fill="white"/>
<rect x="46.6211" y="8" width="1.93103" height="1.93103" fill="white"/>
<rect x="23.4492" y="9.93104" width="1.93103" height="1.93103" fill="white"/>
<rect x="33.1035" y="9.93104" width="1.93103" height="1.93103" fill="white"/>
<rect x="35.0352" y="9.93104" width="1.93103" height="1.93103" fill="white"/>
<rect x="38.8965" y="9.93104" width="1.93103" height="1.93103" fill="white"/>
<rect x="40.8281" y="9.93104" width="1.93103" height="1.93103" fill="white"/>
<rect x="44.6895" y="9.93104" width="1.93103" height="1.93103" fill="white"/>
<rect x="23.4492" y="11.8621" width="1.93103" height="1.93103" fill="white"/>
<rect x="25.3789" y="11.8621" width="1.93103" height="1.93103" fill="white"/>
<rect x="27.3105" y="11.8621" width="1.93103" height="1.93103" fill="white"/>
<rect x="31.1719" y="11.8621" width="1.93103" height="1.93103" fill="white"/>
<rect x="33.1035" y="11.8621" width="1.93103" height="1.93103" fill="white"/>
<rect x="38.8965" y="11.8621" width="1.93103" height="1.93103" fill="white"/>
<rect x="44.6895" y="11.8621" width="1.93103" height="1.93103" fill="white"/>
<rect x="46.6211" y="11.8621" width="1.93103" height="1.93103" fill="white"/>
<rect x="25.3789" y="13.7931" width="1.93103" height="1.93103" fill="white"/>
<rect x="27.3105" y="13.7931" width="1.93103" height="1.93103" fill="white"/>
<rect x="29.2422" y="13.7931" width="1.93103" height="1.93103" fill="white"/>
<rect x="31.1719" y="13.7931" width="1.93103" height="1.93103" fill="white"/>
<rect x="33.1035" y="13.7931" width="1.93103" height="1.93103" fill="white"/>
<rect x="35.0352" y="13.7931" width="1.93103" height="1.93103" fill="white"/>
<rect x="40.8281" y="13.7931" width="1.93103" height="1.93103" fill="white"/>
<rect x="44.6895" y="13.7931" width="1.93103" height="1.93103" fill="white"/>
<rect x="46.6211" y="13.7931" width="1.93103" height="1.93103" fill="white"/>
<rect x="23.4492" y="15.7241" width="1.93103" height="1.93103" fill="white"/>
<rect x="25.3789" y="15.7241" width="1.93103" height="1.93103" fill="white"/>
<rect x="27.3105" y="15.7241" width="1.93103" height="1.93103" fill="white"/>
<rect x="40.8281" y="15.7241" width="1.93103" height="1.93103" fill="white"/>
<rect x="44.6895" y="15.7241" width="1.93103" height="1.93103" fill="white"/>
<rect x="25.3789" y="17.6552" width="1.93103" height="1.93103" fill="white"/>
<rect x="27.3105" y="17.6552" width="1.93103" height="1.93103" fill="white"/>
<rect x="33.1035" y="17.6552" width="1.93103" height="1.93103" fill="white"/>
<rect x="35.0352" y="17.6552" width="1.93103" height="1.93103" fill="white"/>
<rect x="38.8965" y="17.6552" width="1.93103" height="1.93103" fill="white"/>
<rect x="40.8281" y="17.6552" width="1.93103" height="1.93103" fill="white"/>
<rect x="46.6211" y="17.6552" width="1.93103" height="1.93103" fill="white"/>
<rect x="23.4492" y="19.5862" width="1.93103" height="1.93103" fill="white"/>
<rect x="27.3105" y="19.5862" width="1.93103" height="1.93103" fill="white"/>
<rect x="31.1719" y="19.5862" width="1.93103" height="1.93103" fill="white"/>
<rect x="35.0352" y="19.5862" width="1.93103" height="1.93103" fill="white"/>
<rect x="38.8965" y="19.5862" width="1.93103" height="1.93103" fill="white"/>
<rect x="42.7578" y="19.5862" width="1.93103" height="1.93103" fill="white"/>
<rect x="46.6211" y="19.5862" width="1.93103" height="1.93103" fill="white"/>
<rect x="27.3105" y="21.5172" width="1.93103" height="1.93103" fill="white"/>
<rect x="31.1719" y="21.5172" width="1.93103" height="1.93103" fill="white"/>
<rect x="33.1035" y="21.5172" width="1.93103" height="1.93103" fill="white"/>
<rect x="38.8965" y="21.5172" width="1.93103" height="1.93103" fill="white"/>
<rect x="8" y="23.4483" width="1.93103" height="1.93103" fill="white"/>
<rect x="13.793" y="23.4483" width="1.93103" height="1.93103" fill="white"/>
<rect x="15.7246" y="23.4483" width="1.93103" height="1.93103" fill="white"/>
<rect x="17.6543" y="23.4483" width="1.93103" height="1.93103" fill="white"/>
<rect x="19.5859" y="23.4483" width="1.93103" height="1.93103" fill="white"/>
<rect x="21.5176" y="23.4483" width="1.93103" height="1.93103" fill="white"/>
<rect x="23.4492" y="23.4483" width="1.93103" height="1.93103" fill="white"/>
<rect x="25.3789" y="23.4483" width="1.93103" height="1.93103" fill="white"/>
<rect x="29.2422" y="23.4483" width="1.93103" height="1.93103" fill="white"/>
<rect x="31.1719" y="23.4483" width="1.93103" height="1.93103" fill="white"/>
<rect x="36.9648" y="23.4483" width="1.93103" height="1.93103" fill="white"/>
<rect x="40.8281" y="23.4483" width="1.93103" height="1.93103" fill="white"/>
<rect x="48.5508" y="23.4483" width="1.93103" height="1.93103" fill="white"/>
<rect x="54.3457" y="23.4483" width="1.93103" height="1.93103" fill="white"/>
<rect x="58.207" y="23.4483" width="1.93103" height="1.93103" fill="white"/>
<rect x="60.1387" y="23.4483" width="1.93103" height="1.93103" fill="white"/>
<rect x="62.0684" y="23.4483" width="1.93103" height="1.93103" fill="white"/>
<rect x="8" y="25.3793" width="1.93103" height="1.93103" fill="white"/>
<rect x="11.8613" y="25.3793" width="1.93103" height="1.93103" fill="white"/>
<rect x="13.793" y="25.3793" width="1.93103" height="1.93103" fill="white"/>
<rect x="17.6543" y="25.3793" width="1.93103" height="1.93103" fill="white"/>
<rect x="21.5176" y="25.3793" width="1.93103" height="1.93103" fill="white"/>
<rect x="23.4492" y="25.3793" width="1.93103" height="1.93103" fill="white"/>
<rect x="25.3789" y="25.3793" width="1.93103" height="1.93103" fill="white"/>
<rect x="31.1719" y="25.3793" width="1.93103" height="1.93103" fill="white"/>
<rect x="33.1035" y="25.3793" width="1.93103" height="1.93103" fill="white"/>
<rect x="36.9648" y="25.3793" width="1.93103" height="1.93103" fill="white"/>
<rect x="38.8965" y="25.3793" width="1.93103" height="1.93103" fill="white"/>
<rect x="44.6895" y="25.3793" width="1.93103" height="1.93103" fill="white"/>
<rect x="54.3457" y="25.3793" width="1.93103" height="1.93103" fill="white"/>
<rect x="58.207" y="25.3793" width="1.93103" height="1.93103" fill="white"/>
<rect x="60.1387" y="25.3793" width="1.93103" height="1.93103" fill="white"/>
<rect x="11.8613" y="27.3103" width="1.93103" height="1.93103" fill="white"/>
<rect x="15.7246" y="27.3103" width="1.93103" height="1.93103" fill="white"/>
<rect x="19.5859" y="27.3103" width="1.93103" height="1.93103" fill="white"/>
<rect x="21.5176" y="27.3103" width="1.93103" height="1.93103" fill="white"/>
<rect x="23.4492" y="27.3103" width="1.93103" height="1.93103" fill="white"/>
<rect x="31.1719" y="27.3103" width="1.93103" height="1.93103" fill="white"/>
<rect x="35.0352" y="27.3103" width="1.93103" height="1.93103" fill="white"/>
<rect x="36.9648" y="27.3103" width="1.93103" height="1.93103" fill="white"/>
<rect x="42.7578" y="27.3103" width="1.93103" height="1.93103" fill="white"/>
<rect x="50.4824" y="27.3103" width="1.93103" height="1.93103" fill="white"/>
<rect x="58.207" y="27.3103" width="1.93103" height="1.93103" fill="white"/>
<rect x="9.93164" y="29.2414" width="1.93103" height="1.93103" fill="white"/>
<rect x="11.8613" y="29.2414" width="1.93103" height="1.93103" fill="white"/>
<rect x="15.7246" y="29.2414" width="1.93103" height="1.93103" fill="white"/>
<rect x="17.6543" y="29.2414" width="1.93103" height="1.93103" fill="white"/>
<rect x="35.0352" y="29.2414" width="1.93103" height="1.93103" fill="white"/>
<rect x="40.8281" y="29.2414" width="1.93103" height="1.93103" fill="white"/>
<rect x="44.6895" y="29.2414" width="1.93103" height="1.93103" fill="white"/>
<rect x="52.4141" y="29.2414" width="1.93103" height="1.93103" fill="white"/>
<rect x="54.3457" y="29.2414" width="1.93103" height="1.93103" fill="white"/>
<rect x="56.2754" y="29.2414" width="1.93103" height="1.93103" fill="white"/>
<rect x="62.0684" y="29.2414" width="1.93103" height="1.93103" fill="white"/>
<rect x="8" y="31.1724" width="1.93103" height="1.93103" fill="white"/>
<rect x="9.93164" y="31.1724" width="1.93103" height="1.93103" fill="white"/>
<rect x="11.8613" y="31.1724" width="1.93103" height="1.93103" fill="white"/>
<rect x="19.5859" y="31.1724" width="1.93103" height="1.93103" fill="white"/>
<rect x="35.0352" y="31.1724" width="1.93103" height="1.93103" fill="white"/>
<rect x="36.9648" y="31.1724" width="1.93103" height="1.93103" fill="white"/>
<rect x="42.7578" y="31.1724" width="1.93103" height="1.93103" fill="white"/>
<rect x="44.6895" y="31.1724" width="1.93103" height="1.93103" fill="white"/>
<rect x="46.6211" y="31.1724" width="1.93103" height="1.93103" fill="white"/>
<rect x="50.4824" y="31.1724" width="1.93103" height="1.93103" fill="white"/>
<rect x="62.0684" y="31.1724" width="1.93103" height="1.93103" fill="white"/>
<rect x="9.93164" y="33.1034" width="1.93103" height="1.93103" fill="white"/>
<rect x="13.793" y="33.1034" width="1.93103" height="1.93103" fill="white"/>
<rect x="15.7246" y="33.1034" width="1.93103" height="1.93103" fill="white"/>
<rect x="17.6543" y="33.1034" width="1.93103" height="1.93103" fill="white"/>
<rect x="23.4492" y="33.1034" width="1.93103" height="1.93103" fill="white"/>
<rect x="25.3789" y="33.1034" width="1.93103" height="1.93103" fill="white"/>
<rect x="27.3105" y="33.1034" width="1.93103" height="1.93103" fill="white"/>
<rect x="31.1719" y="33.1034" width="1.93103" height="1.93103" fill="white"/>
<rect x="33.1035" y="33.1034" width="1.93103" height="1.93103" fill="white"/>
<rect x="36.9648" y="33.1034" width="1.93103" height="1.93103" fill="white"/>
<rect x="40.8281" y="33.1034" width="1.93103" height="1.93103" fill="white"/>
<rect x="42.7578" y="33.1034" width="1.93103" height="1.93103" fill="white"/>
<rect x="50.4824" y="33.1034" width="1.93103" height="1.93103" fill="white"/>
<rect x="52.4141" y="33.1034" width="1.93103" height="1.93103" fill="white"/>
<rect x="54.3457" y="33.1034" width="1.93103" height="1.93103" fill="white"/>
<rect x="56.2754" y="33.1034" width="1.93103" height="1.93103" fill="white"/>
<rect x="58.207" y="33.1034" width="1.93103" height="1.93103" fill="white"/>
<rect x="60.1387" y="33.1034" width="1.93103" height="1.93103" fill="white"/>
<rect x="62.0684" y="33.1034" width="1.93103" height="1.93103" fill="white"/>
<rect x="8" y="35.0345" width="1.93103" height="1.93103" fill="white"/>
<rect x="9.93164" y="35.0345" width="1.93103" height="1.93103" fill="white"/>
<rect x="13.793" y="35.0345" width="1.93103" height="1.93103" fill="white"/>
<rect x="15.7246" y="35.0345" width="1.93103" height="1.93103" fill="white"/>
<rect x="17.6543" y="35.0345" width="1.93103" height="1.93103" fill="white"/>
<rect x="19.5859" y="35.0345" width="1.93103" height="1.93103" fill="white"/>
<rect x="21.5176" y="35.0345" width="1.93103" height="1.93103" fill="white"/>
<rect x="23.4492" y="35.0345" width="1.93103" height="1.93103" fill="white"/>
<rect x="33.1035" y="35.0345" width="1.93103" height="1.93103" fill="white"/>
<rect x="36.9648" y="35.0345" width="1.93103" height="1.93103" fill="white"/>
<rect x="38.8965" y="35.0345" width="1.93103" height="1.93103" fill="white"/>
<rect x="40.8281" y="35.0345" width="1.93103" height="1.93103" fill="white"/>
<rect x="44.6895" y="35.0345" width="1.93103" height="1.93103" fill="white"/>
<rect x="48.5508" y="35.0345" width="1.93103" height="1.93103" fill="white"/>
<rect x="50.4824" y="35.0345" width="1.93103" height="1.93103" fill="white"/>
<rect x="54.3457" y="35.0345" width="1.93103" height="1.93103" fill="white"/>
<rect x="58.207" y="35.0345" width="1.93103" height="1.93103" fill="white"/>
<rect x="62.0684" y="35.0345" width="1.93103" height="1.93103" fill="white"/>
<rect x="8" y="36.9655" width="1.93103" height="1.93103" fill="white"/>
<rect x="11.8613" y="36.9655" width="1.93103" height="1.93103" fill="white"/>
<rect x="13.793" y="36.9655" width="1.93103" height="1.93103" fill="white"/>
<rect x="15.7246" y="36.9655" width="1.93103" height="1.93103" fill="white"/>
<rect x="21.5176" y="36.9655" width="1.93103" height="1.93103" fill="white"/>
<rect x="23.4492" y="36.9655" width="1.93103" height="1.93103" fill="white"/>
<rect x="25.3789" y="36.9655" width="1.93103" height="1.93103" fill="white"/>
<rect x="27.3105" y="36.9655" width="1.93103" height="1.93103" fill="white"/>
<rect x="36.9648" y="36.9655" width="1.93103" height="1.93103" fill="white"/>
<rect x="44.6895" y="36.9655" width="1.93103" height="1.93103" fill="white"/>
<rect x="48.5508" y="36.9655" width="1.93103" height="1.93103" fill="white"/>
<rect x="50.4824" y="36.9655" width="1.93103" height="1.93103" fill="white"/>
<rect x="54.3457" y="36.9655" width="1.93103" height="1.93103" fill="white"/>
<rect x="58.207" y="36.9655" width="1.93103" height="1.93103" fill="white"/>
<rect x="62.0684" y="36.9655" width="1.93103" height="1.93103" fill="white"/>
<rect x="9.93164" y="38.8966" width="1.93103" height="1.93103" fill="white"/>
<rect x="15.7246" y="38.8966" width="1.93103" height="1.93103" fill="white"/>
<rect x="19.5859" y="38.8966" width="1.93103" height="1.93103" fill="white"/>
<rect x="21.5176" y="38.8966" width="1.93103" height="1.93103" fill="white"/>
<rect x="23.4492" y="38.8966" width="1.93103" height="1.93103" fill="white"/>
<rect x="25.3789" y="38.8966" width="1.93103" height="1.93103" fill="white"/>
<rect x="29.2422" y="38.8966" width="1.93103" height="1.93103" fill="white"/>
<rect x="31.1719" y="38.8966" width="1.93103" height="1.93103" fill="white"/>
<rect x="33.1035" y="38.8966" width="1.93103" height="1.93103" fill="white"/>
<rect x="35.0352" y="38.8966" width="1.93103" height="1.93103" fill="white"/>
<rect x="36.9648" y="38.8966" width="1.93103" height="1.93103" fill="white"/>
<rect x="38.8965" y="38.8966" width="1.93103" height="1.93103" fill="white"/>
<rect x="44.6895" y="38.8966" width="1.93103" height="1.93103" fill="white"/>
<rect x="46.6211" y="38.8966" width="1.93103" height="1.93103" fill="white"/>
<rect x="56.2754" y="38.8966" width="1.93103" height="1.93103" fill="white"/>
<rect x="8" y="40.8276" width="1.93103" height="1.93103" fill="white"/>
<rect x="9.93164" y="40.8276" width="1.93103" height="1.93103" fill="white"/>
<rect x="21.5176" y="40.8276" width="1.93103" height="1.93103" fill="white"/>
<rect x="27.3105" y="40.8276" width="1.93103" height="1.93103" fill="white"/>
<rect x="35.0352" y="40.8276" width="1.93103" height="1.93103" fill="white"/>
<rect x="36.9648" y="40.8276" width="1.93103" height="1.93103" fill="white"/>
<rect x="38.8965" y="40.8276" width="1.93103" height="1.93103" fill="white"/>
<rect x="40.8281" y="40.8276" width="1.93103" height="1.93103" fill="white"/>
<rect x="42.7578" y="40.8276" width="1.93103" height="1.93103" fill="white"/>
<rect x="44.6895" y="40.8276" width="1.93103" height="1.93103" fill="white"/>
<rect x="48.5508" y="40.8276" width="1.93103" height="1.93103" fill="white"/>
<rect x="54.3457" y="40.8276" width="1.93103" height="1.93103" fill="white"/>
<rect x="58.207" y="40.8276" width="1.93103" height="1.93103" fill="white"/>
<rect x="60.1387" y="40.8276" width="1.93103" height="1.93103" fill="white"/>
<rect x="8" y="42.7586" width="1.93103" height="1.93103" fill="white"/>
<rect x="9.93164" y="42.7586" width="1.93103" height="1.93103" fill="white"/>
<rect x="11.8613" y="42.7586" width="1.93103" height="1.93103" fill="white"/>
<rect x="13.793" y="42.7586" width="1.93103" height="1.93103" fill="white"/>
<rect x="19.5859" y="42.7586" width="1.93103" height="1.93103" fill="white"/>
<rect x="21.5176" y="42.7586" width="1.93103" height="1.93103" fill="white"/>
<rect x="23.4492" y="42.7586" width="1.93103" height="1.93103" fill="white"/>
<rect x="27.3105" y="42.7586" width="1.93103" height="1.93103" fill="white"/>
<rect x="31.1719" y="42.7586" width="1.93103" height="1.93103" fill="white"/>
<rect x="35.0352" y="42.7586" width="1.93103" height="1.93103" fill="white"/>
<rect x="36.9648" y="42.7586" width="1.93103" height="1.93103" fill="white"/>
<rect x="38.8965" y="42.7586" width="1.93103" height="1.93103" fill="white"/>
<rect x="40.8281" y="42.7586" width="1.93103" height="1.93103" fill="white"/>
<rect x="42.7578" y="42.7586" width="1.93103" height="1.93103" fill="white"/>
<rect x="44.6895" y="42.7586" width="1.93103" height="1.93103" fill="white"/>
<rect x="48.5508" y="42.7586" width="1.93103" height="1.93103" fill="white"/>
<rect x="50.4824" y="42.7586" width="1.93103" height="1.93103" fill="white"/>
<rect x="52.4141" y="42.7586" width="1.93103" height="1.93103" fill="white"/>
<rect x="54.3457" y="42.7586" width="1.93103" height="1.93103" fill="white"/>
<rect x="56.2754" y="42.7586" width="1.93103" height="1.93103" fill="white"/>
<rect x="62.0684" y="42.7586" width="1.93103" height="1.93103" fill="white"/>
<rect x="8" y="44.6897" width="1.93103" height="1.93103" fill="white"/>
<rect x="9.93164" y="44.6897" width="1.93103" height="1.93103" fill="white"/>
<rect x="11.8613" y="44.6897" width="1.93103" height="1.93103" fill="white"/>
<rect x="13.793" y="44.6897" width="1.93103" height="1.93103" fill="white"/>
<rect x="15.7246" y="44.6897" width="1.93103" height="1.93103" fill="white"/>
<rect x="21.5176" y="44.6897" width="1.93103" height="1.93103" fill="white"/>
<rect x="23.4492" y="44.6897" width="1.93103" height="1.93103" fill="white"/>
<rect x="25.3789" y="44.6897" width="1.93103" height="1.93103" fill="white"/>
<rect x="27.3105" y="44.6897" width="1.93103" height="1.93103" fill="white"/>
<rect x="33.1035" y="44.6897" width="1.93103" height="1.93103" fill="white"/>
<rect x="35.0352" y="44.6897" width="1.93103" height="1.93103" fill="white"/>
<rect x="38.8965" y="44.6897" width="1.93103" height="1.93103" fill="white"/>
<rect x="44.6895" y="44.6897" width="1.93103" height="1.93103" fill="white"/>
<rect x="54.3457" y="44.6897" width="1.93103" height="1.93103" fill="white"/>
<rect x="56.2754" y="44.6897" width="1.93103" height="1.93103" fill="white"/>
<rect x="58.207" y="44.6897" width="1.93103" height="1.93103" fill="white"/>
<rect x="8" y="46.6207" width="1.93103" height="1.93103" fill="white"/>
<rect x="9.93164" y="46.6207" width="1.93103" height="1.93103" fill="white"/>
<rect x="11.8613" y="46.6207" width="1.93103" height="1.93103" fill="white"/>
<rect x="13.793" y="46.6207" width="1.93103" height="1.93103" fill="white"/>
<rect x="15.7246" y="46.6207" width="1.93103" height="1.93103" fill="white"/>
<rect x="17.6543" y="46.6207" width="1.93103" height="1.93103" fill="white"/>
<rect x="19.5859" y="46.6207" width="1.93103" height="1.93103" fill="white"/>
<rect x="21.5176" y="46.6207" width="1.93103" height="1.93103" fill="white"/>
<rect x="23.4492" y="46.6207" width="1.93103" height="1.93103" fill="white"/>
<rect x="29.2422" y="46.6207" width="1.93103" height="1.93103" fill="white"/>
<rect x="31.1719" y="46.6207" width="1.93103" height="1.93103" fill="white"/>
<rect x="36.9648" y="46.6207" width="1.93103" height="1.93103" fill="white"/>
<rect x="38.8965" y="46.6207" width="1.93103" height="1.93103" fill="white"/>
<rect x="40.8281" y="46.6207" width="1.93103" height="1.93103" fill="white"/>
<rect x="44.6895" y="46.6207" width="1.93103" height="1.93103" fill="white"/>
<rect x="46.6211" y="46.6207" width="1.93103" height="1.93103" fill="white"/>
<rect x="48.5508" y="46.6207" width="1.93103" height="1.93103" fill="white"/>
<rect x="50.4824" y="46.6207" width="1.93103" height="1.93103" fill="white"/>
<rect x="52.4141" y="46.6207" width="1.93103" height="1.93103" fill="white"/>
<rect x="54.3457" y="46.6207" width="1.93103" height="1.93103" fill="white"/>
<rect x="56.2754" y="46.6207" width="1.93103" height="1.93103" fill="white"/>
<rect x="58.207" y="46.6207" width="1.93103" height="1.93103" fill="white"/>
<rect x="60.1387" y="46.6207" width="1.93103" height="1.93103" fill="white"/>
<rect x="23.4492" y="48.5517" width="1.93103" height="1.93103" fill="white"/>
<rect x="31.1719" y="48.5517" width="1.93103" height="1.93103" fill="white"/>
<rect x="36.9648" y="48.5517" width="1.93103" height="1.93103" fill="white"/>
<rect x="46.6211" y="48.5517" width="1.93103" height="1.93103" fill="white"/>
<rect x="54.3457" y="48.5517" width="1.93103" height="1.93103" fill="white"/>
<rect x="56.2754" y="48.5517" width="1.93103" height="1.93103" fill="white"/>
<rect x="23.4492" y="50.4828" width="1.93103" height="1.93103" fill="white"/>
<rect x="31.1719" y="50.4828" width="1.93103" height="1.93103" fill="white"/>
<rect x="33.1035" y="50.4828" width="1.93103" height="1.93103" fill="white"/>
<rect x="35.0352" y="50.4828" width="1.93103" height="1.93103" fill="white"/>
<rect x="36.9648" y="50.4828" width="1.93103" height="1.93103" fill="white"/>
<rect x="38.8965" y="50.4828" width="1.93103" height="1.93103" fill="white"/>
<rect x="40.8281" y="50.4828" width="1.93103" height="1.93103" fill="white"/>
<rect x="42.7578" y="50.4828" width="1.93103" height="1.93103" fill="white"/>
<rect x="44.6895" y="50.4828" width="1.93103" height="1.93103" fill="white"/>
<rect x="46.6211" y="50.4828" width="1.93103" height="1.93103" fill="white"/>
<rect x="50.4824" y="50.4828" width="1.93103" height="1.93103" fill="white"/>
<rect x="54.3457" y="50.4828" width="1.93103" height="1.93103" fill="white"/>
<rect x="56.2754" y="50.4828" width="1.93103" height="1.93103" fill="white"/>
<rect x="23.4492" y="52.4138" width="1.93103" height="1.93103" fill="white"/>
<rect x="29.2422" y="52.4138" width="1.93103" height="1.93103" fill="white"/>
<rect x="31.1719" y="52.4138" width="1.93103" height="1.93103" fill="white"/>
<rect x="35.0352" y="52.4138" width="1.93103" height="1.93103" fill="white"/>
<rect x="38.8965" y="52.4138" width="1.93103" height="1.93103" fill="white"/>
<rect x="40.8281" y="52.4138" width="1.93103" height="1.93103" fill="white"/>
<rect x="42.7578" y="52.4138" width="1.93103" height="1.93103" fill="white"/>
<rect x="44.6895" y="52.4138" width="1.93103" height="1.93103" fill="white"/>
<rect x="46.6211" y="52.4138" width="1.93103" height="1.93103" fill="white"/>
<rect x="54.3457" y="52.4138" width="1.93103" height="1.93103" fill="white"/>
<rect x="23.4492" y="54.3448" width="1.93103" height="1.93103" fill="white"/>
<rect x="31.1719" y="54.3448" width="1.93103" height="1.93103" fill="white"/>
<rect x="33.1035" y="54.3448" width="1.93103" height="1.93103" fill="white"/>
<rect x="35.0352" y="54.3448" width="1.93103" height="1.93103" fill="white"/>
<rect x="38.8965" y="54.3448" width="1.93103" height="1.93103" fill="white"/>
<rect x="44.6895" y="54.3448" width="1.93103" height="1.93103" fill="white"/>
<rect x="46.6211" y="54.3448" width="1.93103" height="1.93103" fill="white"/>
<rect x="48.5508" y="54.3448" width="1.93103" height="1.93103" fill="white"/>
<rect x="50.4824" y="54.3448" width="1.93103" height="1.93103" fill="white"/>
<rect x="52.4141" y="54.3448" width="1.93103" height="1.93103" fill="white"/>
<rect x="54.3457" y="54.3448" width="1.93103" height="1.93103" fill="white"/>
<rect x="56.2754" y="54.3448" width="1.93103" height="1.93103" fill="white"/>
<rect x="60.1387" y="54.3448" width="1.93103" height="1.93103" fill="white"/>
<rect x="23.4492" y="56.2759" width="1.93103" height="1.93103" fill="white"/>
<rect x="25.3789" y="56.2759" width="1.93103" height="1.93103" fill="white"/>
<rect x="27.3105" y="56.2759" width="1.93103" height="1.93103" fill="white"/>
<rect x="33.1035" y="56.2759" width="1.93103" height="1.93103" fill="white"/>
<rect x="35.0352" y="56.2759" width="1.93103" height="1.93103" fill="white"/>
<rect x="36.9648" y="56.2759" width="1.93103" height="1.93103" fill="white"/>
<rect x="38.8965" y="56.2759" width="1.93103" height="1.93103" fill="white"/>
<rect x="44.6895" y="56.2759" width="1.93103" height="1.93103" fill="white"/>
<rect x="46.6211" y="56.2759" width="1.93103" height="1.93103" fill="white"/>
<rect x="48.5508" y="56.2759" width="1.93103" height="1.93103" fill="white"/>
<rect x="52.4141" y="56.2759" width="1.93103" height="1.93103" fill="white"/>
<rect x="62.0684" y="56.2759" width="1.93103" height="1.93103" fill="white"/>
<rect x="25.3789" y="58.2069" width="1.93103" height="1.93103" fill="white"/>
<rect x="29.2422" y="58.2069" width="1.93103" height="1.93103" fill="white"/>
<rect x="33.1035" y="58.2069" width="1.93103" height="1.93103" fill="white"/>
<rect x="36.9648" y="58.2069" width="1.93103" height="1.93103" fill="white"/>
<rect x="42.7578" y="58.2069" width="1.93103" height="1.93103" fill="white"/>
<rect x="46.6211" y="58.2069" width="1.93103" height="1.93103" fill="white"/>
<rect x="52.4141" y="58.2069" width="1.93103" height="1.93103" fill="white"/>
<rect x="54.3457" y="58.2069" width="1.93103" height="1.93103" fill="white"/>
<rect x="58.207" y="58.2069" width="1.93103" height="1.93103" fill="white"/>
<rect x="60.1387" y="58.2069" width="1.93103" height="1.93103" fill="white"/>
<rect x="62.0684" y="58.2069" width="1.93103" height="1.93103" fill="white"/>
<rect x="31.1719" y="60.1379" width="1.93103" height="1.93103" fill="white"/>
<rect x="35.0352" y="60.1379" width="1.93103" height="1.93103" fill="white"/>
<rect x="36.9648" y="60.1379" width="1.93103" height="1.93103" fill="white"/>
<rect x="42.7578" y="60.1379" width="1.93103" height="1.93103" fill="white"/>
<rect x="50.4824" y="60.1379" width="1.93103" height="1.93103" fill="white"/>
<rect x="52.4141" y="60.1379" width="1.93103" height="1.93103" fill="white"/>
<rect x="54.3457" y="60.1379" width="1.93103" height="1.93103" fill="white"/>
<rect x="56.2754" y="60.1379" width="1.93103" height="1.93103" fill="white"/>
<rect x="58.207" y="60.1379" width="1.93103" height="1.93103" fill="white"/>
<rect x="62.0684" y="60.1379" width="1.93103" height="1.93103" fill="white"/>
<rect x="23.4492" y="62.069" width="1.93103" height="1.93103" fill="white"/>
<rect x="31.1719" y="62.069" width="1.93103" height="1.93103" fill="white"/>
<rect x="35.0352" y="62.069" width="1.93103" height="1.93103" fill="white"/>
<rect x="42.7578" y="62.069" width="1.93103" height="1.93103" fill="white"/>
<rect x="44.6895" y="62.069" width="1.93103" height="1.93103" fill="white"/>
<rect x="46.6211" y="62.069" width="1.93103" height="1.93103" fill="white"/>
<rect x="48.5508" y="62.069" width="1.93103" height="1.93103" fill="white"/>
<rect x="52.4141" y="62.069" width="1.93103" height="1.93103" fill="white"/>
<rect x="54.3457" y="62.069" width="1.93103" height="1.93103" fill="white"/>
<path fill-rule="evenodd" clip-rule="evenodd" d="M10.0276 8H19.4897H21.5172V10.0276V19.4897V21.5172H19.4897H10.0276H8V19.4897V10.0276V8H10.0276ZM10.0276 19.4897H19.4897V10.0276H10.0276V19.4897Z" fill="white"/>
<path fill-rule="evenodd" clip-rule="evenodd" d="M52.51 8H61.9721H63.9997V10.0276V19.4897V21.5172H61.9721H52.51H50.4824V19.4897V10.0276V8H52.51ZM52.51 19.4897H61.9721V10.0276H52.51V19.4897Z" fill="white"/>
<path fill-rule="evenodd" clip-rule="evenodd" d="M10.0276 50.4828H19.4897H21.5172V52.5103V61.9724V64H19.4897H10.0276H8V61.9724V52.5103V50.4828H10.0276ZM10.0276 61.9724H19.4897V52.5103H10.0276V61.9724Z" fill="white"/>
<rect x="11.8613" y="11.8621" width="5.7931" height="5.7931" fill="white"/>
<rect x="54.3457" y="11.8621" width="5.7931" height="5.7931" fill="white"/>
<rect x="11.8613" y="54.3448" width="5.7931" height="5.7931" fill="white"/>
</svg>
