<svg width="20" height="20" viewBox="0 0 20 20" fill="none" xmlns="http://www.w3.org/2000/svg">
<path d="M13.9645 12.6578L18.8961 17.5895C19.0695 17.763 19.1668 17.9982 19.1667 18.2434C19.1666 18.4886 19.0691 18.7238 18.8957 18.8971C18.7222 19.0705 18.487 19.1678 18.2418 19.1677C17.9965 19.1676 17.7614 19.0701 17.588 18.8967L12.6564 13.965C11.1821 15.1069 9.32821 15.6442 7.47182 15.4677C5.61543 15.2913 3.896 14.4142 2.66331 13.015C1.43062 11.6158 0.777277 9.7995 0.836183 7.93567C0.895089 6.07184 1.66182 4.30046 2.98041 2.98187C4.29899 1.66329 6.07037 0.896554 7.9342 0.837648C9.79803 0.778741 11.6143 1.43209 13.0135 2.66478C14.4127 3.89746 15.2898 5.61689 15.4663 7.47328C15.6428 9.32967 15.1054 11.1836 13.9635 12.6578H13.9645ZM8.16653 13.6671C9.62523 13.6671 11.0242 13.0876 12.0556 12.0562C13.0871 11.0247 13.6665 9.62577 13.6665 8.16708C13.6665 6.70839 13.0871 5.30945 12.0556 4.278C11.0242 3.24655 9.62523 2.66708 8.16653 2.66708C6.70784 2.66708 5.3089 3.24655 4.27745 4.278C3.246 5.30945 2.66654 6.70839 2.66654 8.16708C2.66654 9.62577 3.246 11.0247 4.27745 12.0562C5.3089 13.0876 6.70784 13.6671 8.16653 13.6671V13.6671Z"/>
</svg>
