<svg width="24" height="24" viewBox="0 0 24 24" fill="none" xmlns="http://www.w3.org/2000/svg">
<path d="M10.799 12.401C10.4682 11.9588 9.84155 11.8684 9.39929 12.1992C8.95703 12.53 8.86667 13.1567 9.19747 13.599L10.799 12.401ZM13.6449 14.9923L13.5734 15.9897H13.5735L13.6449 14.9923ZM15.7496 14.6897L15.4002 13.7527L15.4 13.7528L15.7496 14.6897ZM17.5383 13.54L16.8312 12.8329L16.8311 12.833L17.5383 13.54ZM20.5383 10.54L21.2454 11.2471C21.2495 11.243 21.2535 11.2389 21.2576 11.2347L20.5383 10.54ZM21.9417 7.02296L22.9416 7.01434L22.9416 7.01426L21.9417 7.02296ZM20.4774 3.53087L21.1845 2.82377L21.1844 2.82374L20.4774 3.53087ZM16.9853 2.0666L16.9766 3.06656H16.9766L16.9853 2.0666ZM13.4683 3.46997L12.7735 2.75068C12.7701 2.75403 12.7666 2.7574 12.7632 2.7608L13.4683 3.46997ZM11.0432 4.4708C10.6516 4.86018 10.6497 5.49335 11.0391 5.88501C11.4285 6.27667 12.0616 6.27851 12.4533 5.88913L11.0432 4.4708ZM13.1975 11.599C13.5283 12.0412 14.155 12.1316 14.5972 11.8008C15.0395 11.47 15.1298 10.8433 14.799 10.401L13.1975 11.599ZM12.3917 9.60703L11.9122 10.4846L11.9122 10.4846L12.3917 9.60703ZM10.3516 9.00763L10.2801 10.0051L10.2801 10.0051L10.3516 9.00763ZM8.2469 9.31018L7.8974 8.37324L7.89739 8.37324L8.2469 9.31018ZM6.45825 10.46L7.16535 11.1671L7.16551 11.1669L6.45825 10.46ZM3.45825 13.46L2.75114 12.7529C2.74705 12.757 2.74299 12.7611 2.73896 12.7653L3.45825 13.46ZM2.05488 16.977L3.05484 16.9683V16.9683L2.05488 16.977ZM3.51915 20.4691L2.81202 21.1762L2.81206 21.1762L3.51915 20.4691ZM10.5283 20.53L11.223 21.2493C11.2271 21.2453 11.2313 21.2412 11.2354 21.2371L10.5283 20.53ZM12.9454 19.5271C13.3359 19.1366 13.3359 18.5034 12.9454 18.1129C12.5548 17.7224 11.9217 17.7224 11.5311 18.1129L12.9454 19.5271ZM9.19747 13.599C9.7128 14.2879 10.3703 14.8579 11.1253 15.2704L12.0843 13.5154C11.5808 13.2403 11.1425 12.8603 10.799 12.401L9.19747 13.599ZM11.1253 15.2704C11.8803 15.683 12.7153 15.9283 13.5734 15.9897L13.7163 13.9948C13.1442 13.9539 12.5876 13.7904 12.0843 13.5154L11.1253 15.2704ZM13.5735 15.9897C14.4317 16.0512 15.293 15.9273 16.0991 15.6266L15.4 13.7528C14.8627 13.9532 14.2885 14.0358 13.7163 13.9948L13.5735 15.9897ZM16.0989 15.6267C16.9052 15.326 17.6372 14.8554 18.2454 14.247L16.8311 12.833C16.4255 13.2386 15.9375 13.5524 15.4002 13.7527L16.0989 15.6267ZM18.2454 14.2471L21.2454 11.2471L19.8312 9.83289L16.8312 12.8329L18.2454 14.2471ZM21.2576 11.2347C22.3505 10.103 22.9552 8.58743 22.9416 7.01434L20.9417 7.03157C20.9507 8.08044 20.5476 9.09087 19.819 9.84529L21.2576 11.2347ZM22.9416 7.01426C22.9279 5.44106 22.2969 3.9362 21.1845 2.82377L19.7702 4.23796C20.5119 4.97961 20.9326 5.98289 20.9417 7.03165L22.9416 7.01426ZM21.1844 2.82374C20.072 1.71132 18.5672 1.0803 16.9939 1.06663L16.9766 3.06656C18.0254 3.07567 19.0286 3.49633 19.7703 4.238L21.1844 2.82374ZM16.994 1.06663C15.4207 1.05295 13.9051 1.65773 12.7735 2.75068L14.163 4.18925C14.9174 3.46062 15.9278 3.05744 16.9766 3.06656L16.994 1.06663ZM12.7632 2.7608L11.0432 4.4708L12.4533 5.88913L14.1733 4.17913L12.7632 2.7608ZM14.799 10.401C14.2836 9.71198 13.6261 9.14195 12.8711 8.72945L11.9122 10.4846C12.4156 10.7596 12.8539 11.1396 13.1975 11.599L14.799 10.401ZM12.8711 8.72946C12.1161 8.31695 11.2812 8.07164 10.423 8.01018L10.2801 10.0051C10.8523 10.046 11.4088 10.2096 11.9122 10.4846L12.8711 8.72946ZM10.423 8.01018C9.56485 7.94872 8.7035 8.07255 7.8974 8.37324L8.59639 10.2471C9.13382 10.0466 9.70805 9.9641 10.2801 10.0051L10.423 8.01018ZM7.89739 8.37324C7.09128 8.67395 6.35925 9.14451 5.75099 9.75304L7.16551 11.1669C7.571 10.7613 8.059 10.4476 8.59641 10.2471L7.89739 8.37324ZM5.75114 9.75289L2.75114 12.7529L4.16535 14.1671L7.16535 11.1671L5.75114 9.75289ZM2.73896 12.7653C1.64601 13.8969 1.04123 15.4125 1.05491 16.9857L3.05484 16.9683C3.04572 15.9195 3.4489 14.9091 4.17753 14.1547L2.73896 12.7653ZM1.05491 16.9857C1.06858 18.5589 1.6996 20.0637 2.81202 21.1762L4.22628 19.762C3.48461 19.0203 3.06395 18.0171 3.05484 16.9683L1.05491 16.9857ZM2.81206 21.1762C3.92452 22.2886 5.4294 22.9196 7.00254 22.9333L7.01993 20.9333C5.97112 20.9242 4.96786 20.5036 4.22624 19.762L2.81206 21.1762ZM7.00254 22.9333C8.57569 22.9469 10.0913 22.3423 11.223 21.2493L9.83355 19.8107C9.07914 20.5393 8.06875 20.9425 7.01993 20.9333L7.00254 22.9333ZM11.2354 21.2371L12.9454 19.5271L11.5311 18.1129L9.82115 19.8229L11.2354 21.2371Z"/>
</svg>
