<svg width="24" height="24" viewBox="0 0 24 24" fill="none" xmlns="http://www.w3.org/2000/svg">
<path d="M24.0009 4.71108C23.1175 5.10339 22.1686 5.36739 21.1726 5.48647C22.1898 4.87724 22.9698 3.91262 23.3372 2.76247C22.3865 3.32647 21.3323 3.73631 20.2098 3.95785C19.3117 3.00062 18.0323 2.40247 16.6163 2.40247C13.8969 2.40247 11.6926 4.6077 11.6926 7.32616C11.6926 7.712 11.7369 8.08862 11.82 8.4477C7.728 8.24277 4.10031 6.28216 1.67077 3.30247C1.248 4.02985 1.00523 4.87539 1.00523 5.77908C1.00523 7.48677 1.87385 8.99416 3.19477 9.87662C2.388 9.85077 1.62831 9.62923 0.964615 9.26093C0.964615 9.28216 0.964615 9.30154 0.964615 9.32277C0.964615 11.7089 2.66123 13.6991 4.91446 14.1505C4.50185 14.2631 4.06615 14.3231 3.61662 14.3231C3.3 14.3231 2.99077 14.2917 2.69077 14.2354C3.31754 16.1914 5.136 17.6157 7.29046 17.6554C5.60585 18.9763 3.48277 19.7637 1.17508 19.7637C0.778154 19.7637 0.385846 19.7406 0 19.6945C2.17938 21.0911 4.76677 21.9062 7.548 21.9062C16.6052 21.9062 21.5566 14.4034 21.5566 7.89662C21.5566 7.68339 21.552 7.47108 21.5428 7.2597C22.5055 6.56462 23.3409 5.69785 24.0009 4.71108Z"/>
</svg>
