<svg width="25" height="24" viewBox="0 0 25 24" fill="none" xmlns="http://www.w3.org/2000/svg">
<circle cx="12.3076" cy="12" r="12" fill="#4D9FEB"/>
<path d="M18.7123 8.20394C18.2942 8.384 17.8548 8.50939 17.4047 8.577C17.6151 8.5409 17.9247 8.16182 18.048 8.00838C18.2352 7.77693 18.3779 7.51272 18.4688 7.22916C18.4688 7.2081 18.4898 7.17801 18.4688 7.16297C18.4582 7.15718 18.4463 7.15414 18.4342 7.15414C18.4222 7.15414 18.4103 7.15718 18.3997 7.16297C17.911 7.42785 17.3909 7.63002 16.8516 7.76468C16.8328 7.77043 16.8128 7.77095 16.7938 7.76618C16.7747 7.76141 16.7573 7.75153 16.7434 7.73761C16.7014 7.68758 16.6563 7.64035 16.6082 7.5962C16.3882 7.39898 16.1387 7.23755 15.8687 7.11784C15.5042 6.96819 15.1106 6.90338 14.7174 6.9283C14.336 6.95241 13.9635 7.05482 13.6233 7.22916C13.2882 7.41296 12.9938 7.66266 12.7576 7.96325C12.5092 8.27264 12.3298 8.63169 12.2316 9.01625C12.1506 9.38205 12.1414 9.76011 12.2045 10.1294C12.2045 10.1926 12.2045 10.2016 12.1504 10.1926C10.0072 9.8767 8.24875 9.11553 6.81193 7.48188C6.7488 7.40967 6.71574 7.40967 6.66464 7.48188C6.03941 8.43259 6.34301 9.93687 7.12454 10.68C7.22975 10.7793 7.33796 10.8755 7.45218 10.9658C7.09385 10.9403 6.74428 10.8432 6.42417 10.68C6.36405 10.6409 6.33098 10.6619 6.32798 10.7341C6.31946 10.8342 6.31946 10.9349 6.32798 11.035C6.3907 11.5147 6.57959 11.9692 6.87535 12.3519C7.17111 12.7346 7.56311 13.0319 8.01128 13.2132C8.12053 13.26 8.23437 13.2953 8.35095 13.3185C8.01922 13.3839 7.679 13.394 7.34397 13.3486C7.27183 13.3335 7.24478 13.3727 7.27183 13.4419C7.7137 14.6453 8.67258 15.0123 9.37596 15.2169C9.47215 15.232 9.56834 15.232 9.67655 15.256C9.67655 15.256 9.67655 15.256 9.65851 15.2741C9.45111 15.6532 8.61246 15.9089 8.2277 16.0413C7.52543 16.2937 6.77667 16.3902 6.0334 16.3241C5.91617 16.306 5.88912 16.309 5.85906 16.3241C5.829 16.3391 5.85906 16.3722 5.89212 16.4023C6.04242 16.5016 6.19271 16.5888 6.34902 16.6731C6.81434 16.9271 7.30629 17.1289 7.8159 17.2748C10.4551 18.0029 13.4249 17.4673 15.4058 15.4967C16.9628 13.9503 17.5099 11.8172 17.5099 9.68114C17.5099 9.59991 17.6091 9.55178 17.6662 9.50966C18.0602 9.20245 18.4074 8.83964 18.6972 8.43259C18.7474 8.37191 18.7732 8.29465 18.7694 8.21597C18.7694 8.17084 18.7694 8.17987 18.7123 8.20394Z" fill="#F7F7F7"/>
</svg>
