<svg width="24" height="8" viewBox="0 0 24 8" fill="none" xmlns="http://www.w3.org/2000/svg">
<path d="M17.445 0.623266C17.058 0.477266 16.455 0.322266 15.705 0.322266C13.785 0.322266 12.43 1.29027 12.42 2.67727C12.408 3.69727 13.384 4.27127 14.121 4.61327C14.878 4.96327 15.131 5.18327 15.129 5.49827C15.124 5.97527 14.524 6.19127 13.967 6.19127C13.201 6.19127 12.781 6.08427 12.136 5.81627L11.897 5.70527L11.626 7.30327C12.092 7.49827 12.932 7.66527 13.801 7.67827C15.842 7.67827 17.176 6.71727 17.192 5.23927C17.208 4.42627 16.682 3.80927 15.571 3.30127C14.897 2.97127 14.477 2.75027 14.477 2.41527C14.477 2.11927 14.836 1.80327 15.586 1.80327C16.231 1.79327 16.682 1.93227 17.041 2.07627L17.221 2.15727L17.492 0.613266L17.445 0.623266ZM22.428 0.453266H20.928C20.461 0.453266 20.112 0.580266 19.907 1.04427L17.022 7.57827H19.063L19.471 6.50827L21.961 6.51027C22.022 6.76027 22.201 7.57827 22.201 7.57827H24L22.428 0.453266ZM9.66 0.393266H11.603L10.388 7.52227H8.444L9.66 0.391266V0.393266ZM4.721 4.32227L4.923 5.31227L6.824 0.453266H8.883L5.822 7.56827H3.768L2.088 1.54227C2.053 1.43927 2.01 1.36927 1.908 1.30527C1.34 1.00827 0.705 0.766266 0 0.598266L0.025 0.448266H3.156C3.58 0.464266 3.922 0.598266 4.039 1.05227L4.721 4.32527V4.32227ZM20.029 5.04927L20.804 3.05527C20.794 3.07527 20.964 2.64327 21.062 2.37527L21.195 2.99027L21.644 5.04727H20.029V5.04927Z" fill="#222222"/>
</svg>
