<svg width="24" height="24" viewBox="0 0 24 24" fill="none" xmlns="http://www.w3.org/2000/svg">
<circle cx="12" cy="12" r="12" fill="#65D072"/>
<path d="M5.53906 18.4612L6.46701 15.0167C5.71864 13.6749 5.48088 12.1091 5.79735 10.6067C6.11382 9.10425 6.9633 7.76596 8.1899 6.83738C9.4165 5.90881 10.938 5.45223 12.4751 5.55143C14.0122 5.65063 15.4618 6.29895 16.558 7.37744C17.6542 8.45592 18.3235 9.89222 18.4429 11.4228C18.5623 12.9533 18.1239 14.4755 17.2081 15.7099C16.2924 16.9443 14.9607 17.8082 13.4575 18.143C11.9542 18.4778 10.3802 18.2611 9.02436 17.5327L5.53906 18.4612ZM9.19241 16.2437L9.40796 16.3712C10.3901 16.9513 11.5371 17.1914 12.6704 17.054C13.8037 16.9166 14.8596 16.4094 15.6734 15.6115C16.4873 14.8135 17.0135 13.7697 17.17 12.6426C17.3265 11.5155 17.1045 10.3685 16.5386 9.38029C15.9727 8.39208 15.0947 7.6182 14.0414 7.17923C12.9882 6.74027 11.8188 6.66088 10.7155 6.95345C9.61224 7.24602 8.63707 7.8941 7.94196 8.79671C7.24685 9.69932 6.87084 10.8057 6.87253 11.9436C6.87161 12.887 7.13341 13.8122 7.62878 14.6161L7.76395 14.8383L7.24518 16.7608L9.19241 16.2437Z" fill="#F7F7F7"/>
<path fill-rule="evenodd" clip-rule="evenodd" d="M14.4676 12.8983C14.3358 12.8 14.1815 12.7309 14.0164 12.6961C13.8513 12.6613 13.6798 12.6618 13.515 12.6976C13.2673 12.7926 13.1072 13.1518 12.9472 13.3314C12.9134 13.3745 12.8638 13.4047 12.8077 13.4163C12.7516 13.428 12.6927 13.4203 12.6423 13.3948C11.7355 13.0666 10.9753 12.4647 10.4854 11.6869C10.4436 11.6384 10.4238 11.5768 10.4302 11.515C10.4366 11.4533 10.4687 11.3963 10.5197 11.3559C10.6982 11.1926 10.8293 10.9904 10.9008 10.7679C10.9166 10.5224 10.8558 10.278 10.7255 10.0636C10.6247 9.76309 10.433 9.49549 10.1729 9.29244C10.0388 9.23669 9.89004 9.218 9.74466 9.23862C9.59928 9.25924 9.46346 9.31829 9.35359 9.40865C9.16285 9.56071 9.01146 9.75038 8.91055 9.96367C8.80965 10.177 8.7618 10.4085 8.77055 10.6411C8.77113 10.7718 8.78905 10.9018 8.8239 11.0285C8.91239 11.3327 9.04847 11.6233 9.22784 11.8912C9.35725 12.0964 9.49845 12.295 9.65083 12.4863C10.1461 13.1145 10.7686 13.6479 11.4838 14.0568C11.8427 14.2646 12.2263 14.4336 12.627 14.5603C13.0433 14.7347 13.5029 14.8016 13.957 14.754C14.2157 14.7178 14.4609 14.6234 14.6709 14.4791C14.8809 14.3348 15.0492 14.1451 15.1612 13.9265C15.227 13.7945 15.247 13.6469 15.2184 13.504C15.1498 13.2117 14.7268 13.0391 14.4676 12.8983Z" fill="#F7F7F7"/>
</svg>
